<svg width="25" height="23" viewBox="0 0 25 23" fill="none" xmlns="http://www.w3.org/2000/svg">
<path d="M12.1094 0C5.42202 0 0 4.94102 0 11.0311C0 17.1248 5.42202 22.0623 12.1094 22.0623C18.7967 22.0623 24.2188 17.1248 24.2188 11.0311C24.2188 4.94102 18.7967 0 12.1094 0ZM12.1094 4.89285C13.242 4.89285 14.1602 5.72926 14.1602 6.76102C14.1602 7.79279 13.242 8.6292 12.1094 8.6292C10.9768 8.6292 10.0586 7.79279 10.0586 6.76102C10.0586 5.72926 10.9768 4.89285 12.1094 4.89285ZM14.8438 16.1909C14.8438 16.4856 14.5814 16.7246 14.2578 16.7246H9.96094C9.63735 16.7246 9.375 16.4856 9.375 16.1909V15.1233C9.375 14.8286 9.63735 14.5896 9.96094 14.5896H10.5469V11.7428H9.96094C9.63735 11.7428 9.375 11.5038 9.375 11.2091V10.1415C9.375 9.84676 9.63735 9.60777 9.96094 9.60777H13.0859C13.4095 9.60777 13.6719 9.84676 13.6719 10.1415V14.5896H14.2578C14.5814 14.5896 14.8438 14.8286 14.8438 15.1233V16.1909Z" fill="#B55DBE"/>
</svg>
