<svg width="22" height="23" viewBox="0 0 22 23" fill="none" xmlns="http://www.w3.org/2000/svg">
<path d="M10.9375 11.387C14.3896 11.387 17.1875 8.83826 17.1875 5.69349C17.1875 2.54873 14.3896 0 10.9375 0C7.48535 0 4.6875 2.54873 4.6875 5.69349C4.6875 8.83826 7.48535 11.387 10.9375 11.387ZM15.3125 12.8104H14.4971C13.4131 13.2641 12.207 13.522 10.9375 13.522C9.66797 13.522 8.4668 13.2641 7.37793 12.8104H6.5625C2.93945 12.8104 0 15.4881 0 18.7885V20.6389C0 21.8176 1.0498 22.774 2.34375 22.774H19.5312C20.8252 22.774 21.875 21.8176 21.875 20.6389V18.7885C21.875 15.4881 18.9355 12.8104 15.3125 12.8104Z" fill="#B55DBE"/>
</svg>
