<svg width="25" height="18" viewBox="0 0 25 18" fill="none" xmlns="http://www.w3.org/2000/svg">
<path d="M12.1695 4.59473L4.16732 10.5986V17.0785C4.16732 17.2463 4.24048 17.4072 4.37072 17.5258C4.50095 17.6445 4.67758 17.7111 4.86176 17.7111L9.72548 17.6996C9.90905 17.6988 10.0848 17.6318 10.2143 17.5132C10.3438 17.3947 10.4165 17.2343 10.4164 17.067V13.2828C10.4164 13.1151 10.4896 12.9542 10.6198 12.8355C10.7501 12.7169 10.9267 12.6502 11.1109 12.6502H13.8887C14.0728 12.6502 14.2495 12.7169 14.3797 12.8355C14.51 12.9542 14.5831 13.1151 14.5831 13.2828V17.0643C14.5828 17.1475 14.6006 17.23 14.6354 17.307C14.6701 17.3839 14.7212 17.4539 14.7857 17.5129C14.8503 17.5718 14.9269 17.6186 15.0113 17.6505C15.0957 17.6824 15.1862 17.6989 15.2776 17.6989L20.1395 17.7111C20.3237 17.7111 20.5004 17.6445 20.6306 17.5258C20.7608 17.4072 20.834 17.2463 20.834 17.0785V10.5942L12.8335 4.59473C12.7395 4.52566 12.6223 4.488 12.5015 4.488C12.3807 4.488 12.2635 4.52566 12.1695 4.59473ZM24.8097 8.67546L21.1812 5.95089V0.474458C21.1812 0.348624 21.1263 0.227944 21.0287 0.138966C20.931 0.0499875 20.7985 0 20.6604 0H18.2298C18.0917 0 17.9592 0.0499875 17.8615 0.138966C17.7639 0.227944 17.709 0.348624 17.709 0.474458V3.34532L13.8231 0.432943C13.4502 0.1534 12.9823 0.000558811 12.4993 0.000558811C12.0164 0.000558811 11.5485 0.1534 11.1756 0.432943L0.189019 8.67546C0.136279 8.71517 0.0926449 8.76396 0.0606102 8.81903C0.0285755 8.87411 0.00876769 8.9344 0.00231864 8.99645C-0.0041304 9.0585 0.00290567 9.12111 0.0230248 9.18068C0.043144 9.24025 0.0759519 9.29563 0.119574 9.34365L1.22634 10.5693C1.26985 10.6175 1.32336 10.6574 1.38381 10.6867C1.44426 10.7161 1.51047 10.7343 1.57864 10.7402C1.64681 10.7462 1.71561 10.7399 1.7811 10.7216C1.84659 10.7034 1.90748 10.6735 1.96029 10.6338L12.1695 2.97366C12.2635 2.9046 12.3807 2.86694 12.5015 2.86694C12.6223 2.86694 12.7395 2.9046 12.8335 2.97366L23.0432 10.6338C23.0959 10.6735 23.1567 10.7034 23.2221 10.7217C23.2875 10.7401 23.3562 10.7465 23.4243 10.7406C23.4924 10.7347 23.5586 10.7167 23.6191 10.6875C23.6795 10.6583 23.7331 10.6186 23.7767 10.5705L24.8835 9.34484C24.927 9.29654 24.9597 9.24088 24.9796 9.18104C24.9995 9.12121 25.0062 9.05838 24.9993 8.99618C24.9925 8.93397 24.9722 8.87362 24.9396 8.81858C24.9071 8.76354 24.8629 8.7149 24.8097 8.67546Z" fill="#B55DBE"/>
</svg>
