<svg width="251" height="174" viewBox="0 0 251 174" fill="none" xmlns="http://www.w3.org/2000/svg">
<g clip-path="url(#clip0_636_977)">
<path d="M244.59 168.071L242.111 169.168L236.857 159.762L240.516 158.143L244.59 168.071Z" fill="#FFB6B6"/>
<path d="M224.106 170.507L221.412 170.506L220.13 159.715H224.107L224.106 170.507Z" fill="#FFB6B6"/>
<path d="M224.201 173.425L215.915 173.425V173.316C215.915 172.428 216.255 171.576 216.86 170.948C217.465 170.32 218.285 169.967 219.14 169.967L220.654 168.775L223.478 169.968L224.201 169.968L224.201 173.425Z" fill="#2F2E41"/>
<path d="M246.097 169.939L238.475 173.312L238.434 173.212C238.099 172.395 238.09 171.473 238.409 170.649C238.728 169.825 239.349 169.167 240.136 168.819L241.079 167.106L244.127 167.053L244.792 166.759L246.097 169.939Z" fill="#2F2E41"/>
<path d="M221.463 106.637L217.368 132.529L218.482 136.387L217.02 139.12L219.168 163.118L218.296 165.111L220.731 166.67H225.688L225.951 144.945L227.175 141.755V139.997L229.667 126.749L230.126 141.903L230.851 145.098L230.242 147.373L231.038 148.966L237.857 164.17H243.414L242.984 160.732C243.98 160.208 241.489 158.678 241.25 157.546L242.068 155.634L241.25 152.023L240.5 144.967L241.291 130.071L240.919 110.013C239.053 107.416 236.983 105.412 234.417 104.851L221.463 106.637Z" fill="#2F2E41"/>
<path d="M231.435 72.5396C234.537 72.5396 237.052 69.9287 237.052 66.7079C237.052 63.4872 234.537 60.8762 231.435 60.8762C228.334 60.8762 225.819 63.4872 225.819 66.7079C225.819 69.9287 228.334 72.5396 231.435 72.5396Z" fill="#FFB6B6"/>
<path d="M208.28 112.755C208.21 112.427 208.21 112.088 208.28 111.76C208.35 111.433 208.488 111.125 208.685 110.859C208.882 110.593 209.133 110.375 209.419 110.221C209.706 110.066 210.022 109.979 210.345 109.965L212.607 102.155L215.223 105.409L212.674 112.326C212.66 112.891 212.448 113.431 212.077 113.844C211.706 114.257 211.202 114.514 210.66 114.567C210.119 114.62 209.577 114.464 209.138 114.13C208.7 113.796 208.394 113.307 208.28 112.755Z" fill="#FFB6B6"/>
<path d="M222.956 80.6548L221.942 78.7313L220.635 79.1842C220.635 79.1842 219.193 80.1506 217.173 83.799C216.239 85.4864 214.22 96.3069 214.22 96.3069L209.5 109.284L214.312 110.128L218.327 99.434L222.981 89.1996L222.956 80.6548Z" fill="#B55DBE"/>
<path d="M231.227 106.556C235.182 106.556 239.171 107.364 240.805 110.254C240.763 109.626 240.656 108.536 240.544 107.536L240.136 104.85L240.55 102.387L241.097 101.819L240.117 100.8L240.786 95.6593L242.994 83.5479C243.167 82.5951 243.032 81.6095 242.61 80.7446C242.188 79.8797 241.502 79.1839 240.66 78.7654L238.538 77.7061L235.099 74.3939L228.878 74.3456L226.849 77.0853L221.506 78.9696L222.403 98.2331L221.815 99.6574C221.947 99.783 222.225 100.051 222.376 100.224C222.589 100.469 222.317 101.728 222.137 102.457L221.888 104.399L222.67 104.979L221.654 106.225L221.451 107.807C222.46 107.56 226.822 106.556 231.227 106.556Z" fill="#B55DBE"/>
<path d="M232.872 72.2541C232.896 72.1993 232.92 72.1442 232.944 72.089C232.935 72.0893 232.926 72.0907 232.917 72.0909L232.872 72.2541Z" fill="#2F2E41"/>
<path d="M237.208 61.1415C236.941 60.8803 236.595 60.7247 236.229 60.7019C235.866 60.7141 235.497 61.0546 235.572 61.4238C234.905 60.1974 233.844 59.2541 232.574 58.7596C231.303 58.265 229.906 58.2508 228.627 58.7195C227.724 59.0501 226.839 59.7117 226.632 60.682C226.612 60.9367 226.538 61.1839 226.417 61.4064C226.312 61.5254 226.176 61.6099 226.026 61.6495C225.875 61.6891 225.717 61.6821 225.57 61.6294L225.561 61.6267C225.511 61.6088 225.456 61.6071 225.405 61.6216C225.354 61.6362 225.308 61.6663 225.273 61.7082C225.239 61.7501 225.217 61.8018 225.211 61.8566C225.205 61.9114 225.215 61.9668 225.24 62.0156L225.496 62.5102C225.174 62.5847 224.839 62.5773 224.52 62.4887C224.468 62.4743 224.412 62.4772 224.36 62.4971C224.309 62.517 224.265 62.5529 224.234 62.5998C224.203 62.6467 224.187 62.7024 224.188 62.7592C224.189 62.816 224.207 62.8712 224.239 62.9171C224.663 63.5201 225.218 64.0118 225.857 64.3533C226.497 64.6947 227.205 64.8764 227.924 64.8838C228.944 64.8774 229.975 64.5122 230.968 64.7558C231.353 64.8501 231.712 65.0325 232.019 65.2896C232.326 65.5467 232.575 65.8721 232.745 66.2418C232.916 66.6114 233.004 67.0161 233.005 67.426C233.005 67.8359 232.917 68.2407 232.747 68.6107C233.052 68.2642 233.642 68.3463 233.954 68.686C234.098 68.8679 234.204 69.0784 234.266 69.3047C234.328 69.5309 234.345 69.768 234.315 70.0012C234.232 70.7156 234.028 71.409 233.712 72.0495C234.919 72.011 236.085 71.5888 237.053 70.84C238.022 70.0912 238.745 69.0519 239.126 67.8624C239.508 66.6729 239.528 65.3906 239.185 64.1887C238.842 62.9868 238.152 61.9232 237.208 61.1415Z" fill="#2F2E41"/>
<path d="M55.6981 39.3685C63.4097 39.3685 69.6611 32.8772 69.6611 24.8698C69.6611 16.8624 63.4097 10.3711 55.6981 10.3711C47.9865 10.3711 41.735 16.8624 41.735 24.8698C41.735 32.8772 47.9865 39.3685 55.6981 39.3685Z" fill="#B55DBE"/>
<path d="M16.4535 67.999C9.44728 51.9073 9.70561 31.5104 20.579 17.9315C24.2167 36.7608 34.1514 53.6472 48.6252 65.6028C54.2233 70.1926 60.9099 74.6923 62.4392 81.9266C63.3908 86.4278 62.042 91.1889 59.7102 95.1099C57.3782 99.031 54.1277 102.256 50.9142 105.435L50.5536 106.523C36.5706 96.4705 23.4597 84.0907 16.4535 67.999Z" fill="#F2F2F2"/>
<path d="M20.8816 18.1279C18.3793 32.356 20.2382 47.5064 26.3206 60.5421C27.6356 63.3604 29.2057 66.1004 31.3079 68.3671C33.4111 70.6348 35.9257 72.0623 38.8185 72.9393C41.463 73.7411 44.2576 74.2432 46.6684 75.6985C49.2095 77.2324 50.7865 79.8063 51.4008 82.758C52.1525 86.3694 51.6096 90.0459 50.9584 93.6221C50.2354 97.5927 49.4238 101.705 50.4715 105.697C50.5985 106.18 49.8683 106.357 49.7416 105.874C47.9186 98.929 51.4629 92.0798 50.9675 85.0977C50.7363 81.8398 49.5582 78.6344 46.8679 76.7468C44.5154 75.0962 41.6341 74.5758 38.9497 73.7881C36.131 72.9609 33.5996 71.6974 31.4456 69.6016C29.2421 67.4576 27.5655 64.7755 26.1869 62.0045C23.0778 55.7552 21.0282 48.87 19.9439 41.9377C18.697 33.9701 18.7719 25.8396 20.1653 17.8982C20.2518 17.4067 20.9675 17.6396 20.8816 18.1279Z" fill="white"/>
<path d="M24.1282 56.4132C21.8585 57.1685 19.404 57.0615 17.2032 56.1112C15.0024 55.1609 13.1985 53.4293 12.1138 51.2255C11.8958 50.7788 12.554 50.406 12.7723 50.8533C13.7788 52.9074 15.4592 54.5203 17.5104 55.4009C19.5615 56.2814 21.8482 56.3716 23.9578 55.6553C24.4164 55.5001 24.5842 56.259 24.1282 56.4132Z" fill="white"/>
<path d="M37.426 72.7161C39.6941 68.2384 40.2535 63.0375 38.9927 58.1506C38.8674 57.6665 39.5975 57.4901 39.7226 57.9736C41.0255 63.0616 40.4328 68.4727 38.0627 73.1269C37.8365 73.5704 37.201 73.1572 37.426 72.7161Z" fill="white"/>
<path d="M19.6606 34.2229C20.5975 34.1207 21.4952 33.7784 22.2732 33.2269C23.0513 32.6753 23.6852 31.9318 24.118 31.063C24.3387 30.6167 24.9739 31.0304 24.7547 31.4738C24.2722 32.4313 23.5711 33.2516 22.7128 33.863C21.8545 34.4743 20.8651 34.8581 19.831 34.9809C19.7345 35.0009 19.6342 34.982 19.5506 34.9281C19.467 34.8741 19.4063 34.7891 19.3808 34.6904C19.3588 34.5899 19.3758 34.4844 19.4281 34.3969C19.4805 34.3094 19.5641 34.2469 19.6606 34.2229Z" fill="white"/>
<path d="M78.1623 18.0892C78.0321 18.3719 77.902 18.6546 77.7749 18.9431C76.0439 22.7531 74.6139 26.7028 73.4989 30.7533C73.4079 31.065 73.3202 31.3824 73.238 31.6962C70.652 41.4844 69.8386 51.6861 70.8392 61.7826C71.2409 65.7999 71.9363 69.7796 72.9195 73.6873C74.2777 79.0839 76.1637 84.823 75.7382 90.2117C75.6998 90.7745 75.628 91.3342 75.523 91.8877L51.8597 106.896C51.7894 106.902 51.7222 106.913 51.6517 106.92L50.7333 107.564C50.669 107.366 50.6064 107.159 50.5422 106.961C50.5044 106.847 50.472 106.729 50.4342 106.614C50.4107 106.537 50.3875 106.459 50.362 106.391C50.3541 106.365 50.3465 106.339 50.3418 106.319C50.3164 106.25 50.2997 106.184 50.2776 106.121C49.9248 104.967 49.5793 103.808 49.2409 102.645C49.2376 102.639 49.2376 102.639 49.2396 102.63C46.6834 93.7599 44.8178 84.5901 44.352 75.4178C44.338 75.1418 44.3206 74.8604 44.3174 74.5776C44.1295 70.4419 44.2675 66.2972 44.7299 62.1849C44.9901 59.934 45.3598 57.6982 45.8377 55.486C47.0832 49.7727 49.1863 44.2984 52.07 39.2637C57.8202 29.228 66.5973 21.2136 77.3395 18.3032C77.6143 18.229 77.8842 18.1579 78.1623 18.0892Z" fill="#F2F2F2"/>
<path d="M78.2925 18.4348C68.0446 28.2308 60.7443 41.4897 58.0423 55.7004C57.4581 58.7727 57.123 61.9421 57.4872 65.0662C57.8516 68.1916 59.0317 70.9035 60.8329 73.4121C62.4796 75.7056 64.4197 77.8535 65.5008 80.5227C66.6403 83.3361 66.407 86.3771 65.1861 89.1179C63.6922 92.4713 61.127 95.0674 58.5335 97.5156C55.6539 100.234 52.6215 103.01 51.1436 106.852C50.9646 107.318 50.2794 107.002 50.4582 106.537C53.0294 99.8526 59.8306 96.5996 63.4834 90.7151C65.1879 87.9693 66.1058 84.6735 65.0523 81.4845C64.131 78.6958 62.1321 76.4791 60.4455 74.1719C58.6746 71.7493 57.386 69.1579 56.8814 66.1379C56.3652 63.0485 56.5816 59.8588 57.0876 56.7845C58.2287 49.8511 60.5845 43.0723 63.7382 36.8594C67.3624 29.7181 72.1365 23.2733 77.8537 17.8036C78.2078 17.4652 78.6442 18.0986 78.2925 18.4348Z" fill="white"/>
<path d="M58.6859 51.0331C56.4356 50.2172 54.5379 48.5973 53.3317 46.4627C52.1255 44.3281 51.6893 41.8177 52.101 39.38C52.186 38.887 52.9277 39.0009 52.8426 39.4945C52.4552 41.7638 52.8617 44.1022 53.9889 46.0876C55.116 48.0729 56.8895 49.5745 58.9893 50.3214C59.4454 50.4842 59.1394 51.195 58.6859 51.0331Z" fill="white"/>
<path d="M59.8505 72.3634C64.2578 70.2061 67.7201 66.4032 69.547 61.713C69.7276 61.2482 70.4128 61.5637 70.2324 62.028C68.3225 66.9051 64.7117 70.855 60.1207 73.0894C59.683 73.3021 59.4152 72.5749 59.8505 72.3634Z" fill="white"/>
<path d="M67.9852 30.5224C68.7926 31.0265 69.7078 31.3145 70.6488 31.3605C71.5898 31.4065 72.5271 31.2091 73.3765 30.786C73.8114 30.5677 74.0788 31.2951 73.6467 31.512C72.7061 31.9749 71.6708 32.1916 70.631 32.1432C69.5912 32.0947 68.5787 31.7826 67.6819 31.2342C67.5932 31.1898 67.524 31.1121 67.4886 31.0167C67.4531 30.9213 67.4539 30.8155 67.4908 30.7208C67.5315 30.6268 67.6062 30.5532 67.6988 30.516C67.7913 30.4789 67.8943 30.4812 67.9852 30.5224Z" fill="white"/>
<path d="M134.181 50.3732C127.175 34.2815 127.434 13.8845 138.307 0.305664C141.945 19.135 151.879 36.0213 166.353 47.977C171.951 52.5668 178.638 57.0665 180.167 64.3007C181.119 68.802 179.77 73.5631 177.438 77.4841C175.106 81.4052 171.856 84.6307 168.642 87.8094L168.282 88.8972C154.299 78.8447 141.188 66.4649 134.181 50.3732Z" fill="#F2F2F2"/>
<path d="M138.61 0.502027C136.107 14.7302 137.966 29.8806 144.048 42.9162C145.363 45.7345 146.934 48.4746 149.036 50.7412C151.139 53.0089 153.654 54.4364 156.546 55.3135C159.191 56.1152 161.985 56.6173 164.396 58.0726C166.937 59.6066 168.514 62.1805 169.129 65.1321C169.88 68.7436 169.338 72.4201 168.686 75.9962C167.963 79.9669 167.152 84.0792 168.199 88.0708C168.326 88.5544 167.596 88.7306 167.469 88.2477C165.647 81.3032 169.191 74.4539 168.695 67.4719C168.464 64.2139 167.286 61.0086 164.596 59.121C162.243 57.4703 159.362 56.95 156.678 56.1622C153.859 55.335 151.327 54.0716 149.173 51.9757C146.97 49.8318 145.293 47.1496 143.915 44.3786C140.806 38.1293 138.756 31.2441 137.672 24.3119C136.425 16.3442 136.5 8.21377 137.893 0.272322C137.98 -0.219166 138.695 0.013762 138.61 0.502027Z" fill="white"/>
<path d="M141.856 38.7873C139.586 39.5427 137.132 39.4357 134.931 38.4854C132.73 37.5351 130.926 35.8034 129.842 33.5996C129.624 33.1529 130.282 32.7802 130.5 33.2274C131.507 35.2816 133.187 36.8944 135.238 37.775C137.289 38.6556 139.576 38.7458 141.686 38.0294C142.144 37.8743 142.312 38.6331 141.856 38.7873Z" fill="white"/>
<path d="M155.154 55.0903C157.422 50.6126 157.981 45.4117 156.721 40.5247C156.595 40.0406 157.325 39.8642 157.451 40.3477C158.753 45.4358 158.161 50.8468 155.791 55.5011C155.564 55.9445 154.929 55.5313 155.154 55.0903Z" fill="white"/>
<path d="M137.389 16.5971C138.325 16.4948 139.223 16.1526 140.001 15.601C140.779 15.0495 141.413 14.3059 141.846 13.4371C142.067 12.9909 142.702 13.4046 142.483 13.8479C142 14.8055 141.299 15.6258 140.441 16.2371C139.582 16.8485 138.593 17.2323 137.559 17.355C137.462 17.3751 137.362 17.3562 137.279 17.3022C137.195 17.2483 137.134 17.1633 137.109 17.0645C137.087 16.9641 137.104 16.8586 137.156 16.7711C137.208 16.6835 137.292 16.621 137.389 16.5971Z" fill="white"/>
<path d="M195.89 0.463257C195.76 0.745947 195.63 1.02864 195.503 1.31711C193.772 5.12711 192.342 9.07683 191.227 13.1273C191.136 13.439 191.048 13.7564 190.966 14.0702C188.38 23.8584 187.566 34.0601 188.567 44.1566C188.969 48.1739 189.664 52.1536 190.647 56.0613C192.006 61.458 193.892 67.1971 193.466 72.5858C193.428 73.1485 193.356 73.7082 193.251 74.2617L169.588 89.2695C169.517 89.2756 169.45 89.2875 169.38 89.2937L168.461 89.9378C168.397 89.7399 168.334 89.5333 168.27 89.3354C168.232 89.2208 168.2 89.1029 168.162 88.9882C168.139 88.9108 168.115 88.8331 168.09 88.7646C168.082 88.7388 168.074 88.7129 168.07 88.6927C168.044 88.6242 168.028 88.5578 168.005 88.4949C167.653 87.3408 167.307 86.1821 166.969 85.0188C166.965 85.0132 166.965 85.0132 166.967 85.0043C164.411 76.134 162.546 66.9641 162.08 57.7918C162.066 57.5158 162.048 57.2344 162.045 56.9516C161.857 52.8159 161.995 48.6713 162.458 44.5589C162.718 42.308 163.088 40.0722 163.566 37.8601C164.811 32.1468 166.914 26.6724 169.798 21.6377C175.548 11.602 184.325 3.58759 195.067 0.677245C195.342 0.603 195.612 0.531893 195.89 0.463257Z" fill="#F0F0F0"/>
<path d="M196.02 0.808962C185.773 10.6049 178.472 23.8639 175.77 38.0746C175.186 41.1469 174.851 44.3163 175.215 47.4403C175.58 50.5658 176.76 53.2776 178.561 55.7863C180.208 58.0797 182.148 60.2277 183.229 62.8968C184.368 65.7102 184.135 68.7512 182.914 71.492C181.42 74.8455 178.855 77.4415 176.261 79.8898C173.382 82.6081 170.349 85.3842 168.872 89.2262C168.693 89.6917 168.007 89.376 168.186 88.9112C170.757 82.2267 177.559 78.9737 181.211 73.0892C182.916 70.3434 183.834 67.0476 182.78 63.8586C181.859 61.07 179.86 58.8532 178.174 56.546C176.403 54.1234 175.114 51.532 174.609 48.512C174.093 45.4227 174.31 42.233 174.816 39.1586C175.957 32.2252 178.312 25.4464 181.466 19.2335C185.09 12.0923 189.864 5.6474 195.582 0.177742C195.936 -0.160644 196.372 0.472788 196.02 0.808962Z" fill="white"/>
<path d="M176.414 33.4073C174.164 32.5914 172.266 30.9715 171.06 28.8368C169.853 26.7022 169.417 24.1919 169.829 21.7541C169.914 21.2612 170.656 21.3751 170.571 21.8687C170.183 24.138 170.59 26.4763 171.717 28.4617C172.844 30.4471 174.617 31.9487 176.717 32.6955C177.173 32.8584 176.867 33.5692 176.414 33.4073Z" fill="white"/>
<path d="M177.578 54.7375C181.986 52.5802 185.448 48.7774 187.275 44.0872C187.456 43.6223 188.141 43.9379 187.96 44.4022C186.05 49.2792 182.44 53.2291 177.849 55.4635C177.411 55.6762 177.143 54.949 177.578 54.7375Z" fill="white"/>
<path d="M185.713 12.8966C186.521 13.4006 187.436 13.6886 188.377 13.7346C189.318 13.7806 190.255 13.5832 191.104 13.1602C191.539 12.9418 191.807 13.6693 191.375 13.8862C190.434 14.3491 189.399 14.5658 188.359 14.5173C187.319 14.4689 186.307 14.1568 185.41 13.6083C185.321 13.564 185.252 13.4862 185.217 13.3909C185.181 13.2955 185.182 13.1897 185.219 13.0949C185.259 13.0009 185.334 12.9273 185.427 12.8902C185.519 12.853 185.622 12.8553 185.713 12.8966Z" fill="white"/>
<path d="M44.8835 169.715L47.4699 171.795L57.5258 173.606L68.7029 144.757C68.7029 144.757 75.5476 122.523 94.7126 127.071L156.314 125.934C156.314 125.934 175.228 123.921 178.354 133.184C178.946 134.938 194.918 173.695 194.918 173.695L206.116 172.054L204.774 139.012L178.177 74.9046L131.947 71.9072L84.3087 75.331L44.8835 169.715Z" fill="#3F3D56"/>
<path d="M96.0815 129.061C105.91 129.061 113.878 120.788 113.878 110.583C113.878 100.377 105.91 92.104 96.0815 92.104C86.253 92.104 78.2854 100.377 78.2854 110.583C78.2854 120.788 86.253 129.061 96.0815 129.061Z" fill="#2F2E41"/>
<path d="M155.767 129.061C165.595 129.061 173.563 120.788 173.563 110.583C173.563 100.377 165.595 92.104 155.767 92.104C145.938 92.104 137.971 100.377 137.971 110.583C137.971 120.788 145.938 129.061 155.767 129.061Z" fill="#2F2E41"/>
<path d="M75.2738 50.0293L82.6012 48.5374C82.6012 48.5374 137.77 40.3635 172.641 50.0293L170.004 57.7051L77.7379 57.1365L75.2738 50.0293Z" fill="#E6E6E6"/>
<path d="M149.658 89.6875H102.839C97.1538 89.6875 92.2406 85.6002 91.1562 79.9687L86.0323 53.3582C85.919 52.7775 85.9235 52.1786 86.0456 51.5998C86.1677 51.021 86.4047 50.475 86.7415 49.9967C87.0938 49.4948 87.5417 49.0736 88.0574 48.759C88.573 48.4445 89.1455 48.2433 89.7391 48.1681C114.433 44.9854 138.884 44.98 162.416 48.1516C163.001 48.226 163.565 48.4247 164.074 48.7354C164.582 49.046 165.023 49.462 165.37 49.9573C165.704 50.4287 165.942 50.9666 166.068 51.5374C166.194 52.1083 166.205 52.7 166.101 53.2756L161.371 79.8045C160.35 85.531 155.424 89.6875 149.658 89.6875Z" fill="#B55DBE"/>
<path d="M54.4468 54.3617L54.6506 50.5537C54.6824 49.9604 54.8522 49.384 55.1454 48.8737C55.4385 48.3635 55.8464 47.9346 56.3341 47.6237C59.2903 45.7406 67.2646 41.5946 77.4409 43.7679C78.1555 43.9215 78.8072 44.2999 79.3075 44.8515C79.8077 45.4032 80.1323 46.1015 80.2369 46.8514L80.5094 48.8328L54.4468 54.3617Z" fill="#3F3D56"/>
<path d="M197.949 54.3617L171.886 48.8328L172.324 45.6495C172.375 45.2737 172.532 44.922 172.777 44.6399C173.021 44.3577 173.341 44.158 173.696 44.0663C185.432 41.0081 194.415 46.439 196.889 48.1764C197.124 48.3419 197.319 48.5612 197.459 48.8174C197.599 49.0736 197.68 49.3598 197.697 49.6539L197.949 54.3617Z" fill="#3F3D56"/>
<path d="M46.1716 172.198C45.5436 172.205 44.9267 172.025 44.3943 171.679C37.4158 167.448 33.0652 159.694 31.4732 148.638C30.1581 139.507 30.7073 128.045 33.1053 114.571C37.3569 90.6836 46.2678 66.8064 49.9016 57.6495C50.383 56.4408 51.131 55.3665 52.0855 54.513C53.04 53.6596 54.1741 53.0508 55.3967 52.7358C62.8879 50.8225 75.9654 47.6129 79.3806 47.6129C84.0609 47.6129 86.5933 52.1878 86.6184 52.234L86.6324 52.2717L90.7427 70.7791V71.0461C93.0103 79.0126 91.3254 84.7673 89.5115 88.1924C87.5427 91.9101 84.9952 93.7662 84.9698 93.7845C80.9696 96.9466 74.4523 107.134 67.9662 120.366C61.226 134.118 56.2294 147.687 54.6006 156.664C52.6069 167.651 49.6844 171.015 47.5839 171.902C47.1362 172.095 46.6565 172.196 46.1716 172.198Z" fill="#E6E6E6"/>
<path d="M148.115 87.4132H103.877C101.266 87.4094 98.7369 86.4645 96.7223 84.7399C94.7077 83.0152 93.3322 80.6178 92.8308 77.9571L87.9894 52.0766C87.8819 51.5038 87.8887 50.9141 88.0092 50.344C88.1298 49.7739 88.3616 49.2356 88.6904 48.7622C89.0192 48.2888 89.4379 47.8905 89.9208 47.5917C90.4037 47.2929 90.9404 47.1002 91.4979 47.0252C114.831 43.9299 137.936 43.9246 160.17 47.0091C160.72 47.0868 161.249 47.2793 161.725 47.5749C162.201 47.8705 162.614 48.2632 162.94 48.7292C163.266 49.1952 163.498 49.725 163.621 50.2865C163.745 50.848 163.757 51.4297 163.659 51.9964L159.19 77.7975C158.724 80.4951 157.36 82.9367 155.335 84.6947C153.31 86.4527 150.754 87.4151 148.115 87.4132Z" fill="#E6E6E6"/>
<path d="M206.225 172.198C205.74 172.196 205.26 172.095 204.812 171.902C202.711 171.015 199.789 167.651 197.795 156.664C196.166 147.687 191.17 134.118 184.43 120.366C177.944 107.134 171.426 96.9466 167.421 93.7807C167.401 93.7661 164.853 91.9101 162.884 88.1924C161.07 84.7673 159.386 79.0126 161.653 71.0461L161.657 70.7471L165.768 52.2518L165.777 52.234C165.803 52.1878 168.335 47.6129 173.015 47.6129C176.431 47.6129 189.508 50.8225 196.999 52.7358C198.222 53.0509 199.356 53.6597 200.31 54.5131C201.265 55.3666 202.013 56.4409 202.494 57.6495C206.128 66.8064 215.039 90.6835 219.291 114.571C221.689 128.045 222.238 139.507 220.923 148.638C219.331 159.694 214.98 167.448 207.992 171.685C207.462 172.028 206.849 172.206 206.225 172.198Z" fill="#E6E6E6"/>
<path d="M96.0815 118.543C101.979 118.543 106.759 113.579 106.759 107.456C106.759 101.332 101.979 96.3683 96.0815 96.3683C90.1844 96.3683 85.4039 101.332 85.4039 107.456C85.4039 113.579 90.1844 118.543 96.0815 118.543Z" fill="#3F3D56"/>
<path d="M96.0815 114.847C100.013 114.847 103.2 111.538 103.2 107.456C103.2 103.373 100.013 100.064 96.0815 100.064C92.1501 100.064 88.9631 103.373 88.9631 107.456C88.9631 111.538 92.1501 114.847 96.0815 114.847Z" fill="#2F2E41"/>
<path d="M155.767 118.543C161.664 118.543 166.444 113.579 166.444 107.456C166.444 101.332 161.664 96.3683 155.767 96.3683C149.87 96.3683 145.089 101.332 145.089 107.456C145.089 113.579 149.87 118.543 155.767 118.543Z" fill="#3F3D56"/>
<path d="M155.767 114.847C159.698 114.847 162.885 111.538 162.885 107.456C162.885 103.373 159.698 100.064 155.767 100.064C151.835 100.064 148.648 103.373 148.648 107.456C148.648 111.538 151.835 114.847 155.767 114.847Z" fill="#2F2E41"/>
<path d="M119.353 94.094C119.807 94.094 120.175 93.7122 120.175 93.2412C120.175 92.7701 119.807 92.3883 119.353 92.3883C118.9 92.3883 118.532 92.7701 118.532 93.2412C118.532 93.7122 118.9 94.094 119.353 94.094Z" fill="#2F2E41"/>
<path d="M122.913 94.094C123.366 94.094 123.734 93.7122 123.734 93.2412C123.734 92.7701 123.366 92.3883 122.913 92.3883C122.459 92.3883 122.091 92.7701 122.091 93.2412C122.091 93.7122 122.459 94.094 122.913 94.094Z" fill="#2F2E41"/>
<path d="M121.27 97.2211C121.723 97.2211 122.091 96.8393 122.091 96.3682C122.091 95.8972 121.723 95.5154 121.27 95.5154C120.816 95.5154 120.448 95.8972 120.448 96.3682C120.448 96.8393 120.816 97.2211 121.27 97.2211Z" fill="#2F2E41"/>
<path d="M124.555 97.2211C125.009 97.2211 125.377 96.8393 125.377 96.3682C125.377 95.8972 125.009 95.5154 124.555 95.5154C124.102 95.5154 123.734 95.8972 123.734 96.3682C123.734 96.8393 124.102 97.2211 124.555 97.2211Z" fill="#2F2E41"/>
<path d="M127.841 97.2211C128.294 97.2211 128.662 96.8393 128.662 96.3682C128.662 95.8972 128.294 95.5154 127.841 95.5154C127.387 95.5154 127.019 95.8972 127.019 96.3682C127.019 96.8393 127.387 97.2211 127.841 97.2211Z" fill="#2F2E41"/>
<path d="M131.126 97.2211C131.58 97.2211 131.947 96.8393 131.947 96.3682C131.947 95.8972 131.58 95.5154 131.126 95.5154C130.672 95.5154 130.305 95.8972 130.305 96.3682C130.305 96.8393 130.672 97.2211 131.126 97.2211Z" fill="#2F2E41"/>
<path d="M126.472 94.094C126.925 94.094 127.293 93.7122 127.293 93.2412C127.293 92.7701 126.925 92.3883 126.472 92.3883C126.018 92.3883 125.65 92.7701 125.65 93.2412C125.65 93.7122 126.018 94.094 126.472 94.094Z" fill="#2F2E41"/>
<path d="M130.031 94.094C130.485 94.094 130.852 93.7122 130.852 93.2412C130.852 92.7701 130.485 92.3883 130.031 92.3883C129.577 92.3883 129.21 92.7701 129.21 93.2412C129.21 93.7122 129.577 94.094 130.031 94.094Z" fill="#2F2E41"/>
<path d="M133.59 94.094C134.044 94.094 134.412 93.7122 134.412 93.2412C134.412 92.7701 134.044 92.3883 133.59 92.3883C133.137 92.3883 132.769 92.7701 132.769 93.2412C132.769 93.7122 133.137 94.094 133.59 94.094Z" fill="#2F2E41"/>
<path d="M129.757 119.538H122.639C122.312 119.538 121.999 119.403 121.768 119.163C121.536 118.923 121.407 118.598 121.407 118.259C121.407 117.919 121.536 117.594 121.768 117.354C121.999 117.114 122.312 116.979 122.639 116.979H129.757C130.084 116.979 130.397 117.114 130.628 117.354C130.859 117.594 130.989 117.919 130.989 118.259C130.989 118.598 130.859 118.923 130.628 119.163C130.397 119.403 130.084 119.538 129.757 119.538Z" fill="#2F2E41"/>
<path d="M82.6232 63.9271C82.1638 63.9258 81.7183 63.7638 81.3584 63.4672C80.9986 63.1707 80.7454 62.7568 80.6399 62.2926L79.5482 57.4801C79.4247 56.9331 79.5154 56.3575 79.8003 55.8798C80.0853 55.4022 80.5412 55.0615 81.0678 54.9327C81.5945 54.8039 82.1489 54.8974 82.6092 55.1928C83.0695 55.4882 83.3981 55.9612 83.5227 56.508L84.6143 61.3205C84.6846 61.632 84.6861 61.956 84.6187 62.2682C84.5514 62.5804 84.417 62.8728 84.2255 63.1235C84.034 63.3741 83.7904 63.5766 83.513 63.7158C83.2355 63.8549 82.9314 63.9272 82.6232 63.9271Z" fill="#3F3D56"/>
<path d="M170.046 63.6428C169.738 63.6429 169.434 63.5706 169.157 63.4315C168.879 63.2923 168.636 63.0898 168.444 62.8392C168.253 62.5885 168.118 62.2961 168.051 61.9839C167.984 61.6717 167.985 61.3477 168.055 61.0362L169.147 56.2237C169.272 55.6769 169.6 55.2039 170.061 54.9085C170.521 54.6131 171.075 54.5196 171.602 54.6484C172.129 54.7772 172.584 55.1179 172.869 55.5955C173.154 56.0732 173.245 56.6487 173.122 57.1958L172.03 62.0083C171.924 62.4725 171.671 62.8864 171.311 63.1829C170.951 63.4795 170.506 63.6415 170.046 63.6428Z" fill="#3F3D56"/>
<path d="M67.5609 78.1322C66.889 78.1323 66.2334 77.9176 65.6833 77.5171L63.3918 75.8515C62.9606 75.5379 62.6086 75.121 62.3655 74.6362C62.1224 74.1513 61.9954 73.6128 61.9952 73.0662V67.9651C61.9963 66.9408 62.3887 65.9588 63.0862 65.2345C63.7838 64.5102 64.7295 64.1027 65.716 64.1016H69.2258C70.2123 64.1027 71.158 64.5102 71.8556 65.2345C72.5531 65.9588 72.9455 66.9408 72.9466 67.9651V73.1163C72.9456 73.6488 72.8247 74.1736 72.5934 74.6489C72.3621 75.1241 72.0269 75.5365 71.6146 75.8532L69.503 77.4688C68.9406 77.8998 68.2599 78.1323 67.5609 78.1322Z" fill="#3F3D56"/>
<path d="M69.2258 96.7948H65.716C64.7295 96.7936 63.7838 96.3862 63.0862 95.6619C62.3887 94.9376 61.9963 93.9555 61.9952 92.9312V87.8301C61.9954 87.2835 62.1224 86.745 62.3655 86.2602C62.6086 85.7753 62.9606 85.3585 63.3918 85.0448L65.6833 83.3792C66.2446 82.9708 66.9153 82.7557 67.6006 82.7644C68.286 82.7731 68.9515 83.005 69.503 83.4275L71.6146 85.0432C72.0269 85.3598 72.3621 85.7722 72.5934 86.2475C72.8247 86.7227 72.9456 87.2475 72.9466 87.78V92.9312C72.9455 93.9555 72.5531 94.9376 71.8556 95.6619C71.158 96.3862 70.2123 96.7936 69.2258 96.7948Z" fill="#3F3D56"/>
<path d="M80.1772 86.134H75.2645C74.7381 86.1338 74.2195 86.0019 73.7526 85.7494C73.2857 85.497 72.8842 85.1315 72.5822 84.6838L70.9781 82.3044C70.5847 81.7216 70.3776 81.0252 70.3859 80.3135C70.3943 79.6018 70.6177 78.9108 71.0246 78.3381L72.5806 76.1456C72.8855 75.7175 73.2827 75.3694 73.7403 75.1292C74.198 74.8891 74.7035 74.7635 75.2163 74.7625H80.1772C81.1637 74.7636 82.1094 75.171 82.807 75.8954C83.5045 76.6197 83.8969 77.6017 83.898 78.626V82.2704C83.8969 83.2947 83.5045 84.2768 82.807 85.0011C82.1094 85.7254 81.1637 86.1328 80.1772 86.134Z" fill="#3F3D56"/>
<path d="M59.4034 86.134H54.4908C53.5043 86.1328 52.5586 85.7254 51.861 85.0011C51.1635 84.2768 50.7711 83.2947 50.77 82.2704V78.626C50.7711 77.6017 51.1634 76.6197 51.861 75.8954C52.5585 75.171 53.5043 74.7636 54.4908 74.7625H59.4517C59.9645 74.7635 60.47 74.8891 60.9276 75.1292C61.3853 75.3694 61.7825 75.7175 62.0874 76.1456L63.6434 78.3381C64.0503 78.9108 64.2737 79.6018 64.2821 80.3135C64.2904 81.0252 64.0833 81.7216 63.6899 82.3044L62.0858 84.6838C61.7838 85.1315 61.3823 85.497 60.9154 85.7494C60.4485 86.0019 59.9298 86.1338 59.4034 86.134Z" fill="#3F3D56"/>
<path d="M185.062 72.4881C188.54 72.4881 191.359 69.5607 191.359 65.9495C191.359 62.3383 188.54 59.4109 185.062 59.4109C181.584 59.4109 178.765 62.3383 178.765 65.9495C178.765 69.5607 181.584 72.4881 185.062 72.4881Z" fill="#3F3D56"/>
<path d="M199.025 87.5554C202.503 87.5554 205.322 84.628 205.322 81.0168C205.322 77.4056 202.503 74.4781 199.025 74.4781C195.547 74.4781 192.728 77.4056 192.728 81.0168C192.728 84.628 195.547 87.5554 199.025 87.5554Z" fill="#3F3D56"/>
<path d="M185.062 101.77C188.54 101.77 191.359 98.8423 191.359 95.2311C191.359 91.6199 188.54 88.6925 185.062 88.6925C181.584 88.6925 178.765 91.6199 178.765 95.2311C178.765 98.8423 181.584 101.77 185.062 101.77Z" fill="#3F3D56"/>
<path d="M171.099 87.2711C174.577 87.2711 177.396 84.3437 177.396 80.7325C177.396 77.1213 174.577 74.1938 171.099 74.1938C167.621 74.1938 164.802 77.1213 164.802 80.7325C164.802 84.3437 167.621 87.2711 171.099 87.2711Z" fill="#3F3D56"/>
<path d="M199.025 85.2811C198.213 85.2811 197.419 85.031 196.743 84.5624C196.068 84.0938 195.542 83.4279 195.231 82.6487C194.92 81.8694 194.839 81.012 194.997 80.1848C195.156 79.3576 195.547 78.5978 196.121 78.0014C196.695 77.4051 197.427 76.9989 198.224 76.8344C199.02 76.6698 199.846 76.7543 200.597 77.077C201.347 77.3998 201.988 77.9464 202.44 78.6476C202.891 79.3489 203.132 80.1734 203.132 81.0168C203.131 82.1473 202.697 83.2312 201.928 84.0307C201.158 84.8301 200.114 85.2798 199.025 85.2811ZM199.025 77.321C198.321 77.321 197.633 77.5378 197.048 77.9439C196.462 78.35 196.006 78.9272 195.737 79.6025C195.467 80.2778 195.397 81.0209 195.534 81.7378C195.672 82.4547 196.01 83.1132 196.508 83.63C197.006 84.1469 197.64 84.4989 198.331 84.6415C199.021 84.7841 199.737 84.7109 200.387 84.4312C201.037 84.1515 201.593 83.6778 201.984 83.07C202.375 82.4622 202.584 81.7477 202.584 81.0168C202.583 80.0369 202.208 79.0975 201.541 78.4047C200.873 77.7118 199.969 77.3221 199.025 77.321Z" fill="#E6E6E6"/>
<path d="M189.462 69.122L181.209 69.0009L185.437 61.6398L189.462 69.122ZM182.165 68.4462L188.522 68.5396L185.421 62.7769L182.165 68.4462Z" fill="#E6E6E6"/>
<path d="M174.384 84.144H167.813V77.321H174.384V84.144ZM168.361 83.5754H173.837V77.8896H168.361V83.5754Z" fill="#E6E6E6"/>
<path d="M188.46 98.1667L185.45 95.047L188.104 92.2956L187.717 91.8931L185.062 94.645L182.407 91.8931L182.02 92.2956L184.674 95.047L181.664 98.1667L182.051 98.5693L185.062 95.4487L188.073 98.5693L188.46 98.1667Z" fill="#E6E6E6"/>
<path d="M67.5517 20.9918C66.7395 20.9918 65.9455 20.7417 65.2701 20.2731C64.5948 19.8045 64.0684 19.1385 63.7576 18.3593C63.4467 17.5801 63.3654 16.7227 63.5239 15.8955C63.6823 15.0683 64.0735 14.3085 64.6478 13.7121C65.2221 13.1158 65.9539 12.7096 66.7505 12.5451C67.5472 12.3805 68.3729 12.465 69.1233 12.7877C69.8738 13.1105 70.5151 13.6571 70.9664 14.3583C71.4177 15.0596 71.6585 15.8841 71.6585 16.7275C71.6573 17.858 71.2242 18.9419 70.4543 19.7414C69.6844 20.5408 68.6405 20.9905 67.5517 20.9918ZM67.5517 13.0317C66.8478 13.0317 66.1596 13.2485 65.5743 13.6546C64.989 14.0607 64.5328 14.6378 64.2634 15.3132C63.9941 15.9885 63.9236 16.7316 64.0609 17.4485C64.1982 18.1654 64.5372 18.8239 65.035 19.3407C65.5328 19.8576 66.1669 20.2096 66.8574 20.3522C67.5478 20.4948 68.2634 20.4216 68.9138 20.1419C69.5641 19.8622 70.12 19.3885 70.5111 18.7807C70.9022 18.1729 71.1109 17.4584 71.1109 16.7275C71.1099 15.7476 70.7346 14.8082 70.0673 14.1154C69.4001 13.4225 68.4954 13.0328 67.5517 13.0317Z" fill="#E6E6E6"/>
<path d="M58.2628 13.9299L50.0096 13.8087L54.2374 6.44763L58.2628 13.9299ZM50.9658 13.254L57.3222 13.3474L54.2219 7.58478L50.9658 13.254Z" fill="#E6E6E6"/>
<path d="M46.1156 24.3013H39.5447V17.4784H46.1156V24.3013ZM40.0923 23.7327H45.568V18.047H40.0923V23.7327Z" fill="#E6E6E6"/>
<path d="M52.0585 37.0043L49.0482 33.8846L51.7028 31.1335L51.316 30.731L48.6605 33.4829L46.0051 30.731L45.6182 31.1335L48.2728 33.8846L45.2626 37.0043L45.6494 37.4069L48.6605 34.2863L51.6716 37.4069L52.0585 37.0043Z" fill="#E6E6E6"/>
<path opacity="0.2" d="M237.492 97.9319L226.865 106.237L238.861 100.775L237.492 97.9319Z" fill="black"/>
<path d="M40.9138 108.166L27.4982 108.735L25.8555 99.3533L37.3545 95.6576L40.9138 108.166Z" fill="#A0616A"/>
<path d="M35.9814 85.1742L32.9891 82.0105L36.658 76.1855L42.9376 65.3317C42.7324 64.8641 42.6688 64.3428 42.7551 63.8369C42.8414 63.3309 43.0736 62.8641 43.421 62.4982C43.7684 62.1323 44.2146 61.8845 44.7006 61.7876C45.1865 61.6907 45.6894 61.7493 46.1426 61.9556C46.5958 62.1619 46.978 62.5062 47.2386 62.943C47.4993 63.3798 47.6261 63.8884 47.6023 64.4017C47.5785 64.9149 47.4052 65.4085 47.1053 65.8173C46.8054 66.226 46.3931 66.5306 45.9229 66.6907L40.7397 78.2781L35.9814 85.1742Z" fill="#A0616A"/>
<path d="M32.6667 92.3965C32.3154 92.9615 31.8148 93.4094 31.2248 93.6868C30.6348 93.9642 29.9804 94.0593 29.3397 93.9608C28.7299 93.8861 28.1544 93.6281 27.6838 93.2185C27.2132 92.8089 26.8681 92.2655 26.6908 91.6551C26.5601 91.2219 26.5221 90.7643 26.5793 90.3142C26.6365 89.8641 26.7876 89.4324 27.022 89.0492C29.0237 85.5453 32.7155 80.9179 32.7526 80.8717L32.8113 80.7981L39.0381 82.1989L32.6667 92.3965Z" fill="#B55DBE"/>
<path d="M37.7162 169.939L41.4367 169.939L43.2064 155.038L37.7154 155.038L37.7162 169.939Z" fill="#A0616A"/>
<path d="M36.767 168.678L44.094 168.678H44.0944C45.3327 168.678 46.5203 169.189 47.396 170.098C48.2716 171.007 48.7636 172.24 48.7637 173.526V173.684L36.7672 173.684L36.767 168.678Z" fill="#2F2E41"/>
<path d="M8.74689 168.267L12.4255 168.844L16.3209 154.386L11.4984 153.533L8.74689 168.267Z" fill="#A0616A"/>
<path d="M7.99008 166.873L15.2348 168.01L15.2351 168.01C16.4595 168.202 17.5603 168.892 18.2952 169.927C19.0301 170.961 19.339 172.257 19.154 173.529L19.1313 173.684L7.26959 171.823L7.99008 166.873Z" fill="#2F2E41"/>
<path d="M26.9506 105.892L39.8185 103.618L43.8 112.14L43.9518 167.757L36.8894 167.711L33.9372 122.696L15.122 164.291L7.53522 163.345L24.0744 118.757C24.0744 118.757 23.164 110.879 26.047 106.94L26.9506 105.892Z" fill="#2F2E41"/>
<path d="M22.1735 89.1022C21.9768 88.4888 21.9559 87.8292 22.1134 87.2037C22.2708 86.5781 22.5997 86.0135 23.0603 85.5784L24.889 83.8524L30.0447 82.9504L33.2683 82.342L38.4496 97.9319L25.8656 103.935C24.7612 103.688 24.3201 103.06 24.9627 101.813L22.1735 89.1022Z" fill="#B55DBE"/>
<path d="M33.7225 94.3626L37.3224 91.9772L42.052 96.9093L50.9798 105.534C51.4628 105.422 51.9671 105.465 52.4259 105.658C52.8848 105.85 53.2766 106.183 53.5495 106.611C53.8225 107.04 53.9637 107.544 53.9544 108.058C53.9452 108.572 53.786 109.07 53.4978 109.488C53.2097 109.906 52.8062 110.223 52.3407 110.397C51.8753 110.572 51.3698 110.595 50.8911 110.465C50.4125 110.335 49.9832 110.057 49.6601 109.667C49.337 109.278 49.1353 108.796 49.0817 108.286L39.2359 100.623L33.7225 94.3626Z" fill="#A0616A"/>
<path d="M27.603 89.501C27.1434 89.0272 26.8249 88.4261 26.6856 87.7694C26.5463 87.1126 26.5921 86.4282 26.8175 85.7977C27.0142 85.1938 27.3764 84.6626 27.8596 84.2694C28.3429 83.8761 28.9261 83.6378 29.5379 83.5837C29.9731 83.5406 30.4121 83.5966 30.8244 83.7478C31.2366 83.899 31.6121 84.1418 31.9247 84.4591C34.8121 87.2174 38.4085 91.9254 38.4444 91.9724L38.5015 92.0474L35.8936 98.0834L27.603 89.501Z" fill="#B55DBE"/>
<path d="M27.782 81.0538C30.9076 81.0538 33.4414 78.4228 33.4414 75.1773C33.4414 71.9318 30.9076 69.3008 27.782 69.3008C24.6564 69.3008 22.1226 71.9318 22.1226 75.1773C22.1226 78.4228 24.6564 81.0538 27.782 81.0538Z" fill="#A0616A"/>
<path d="M23.2001 83.549C22.3225 83.5489 21.4457 83.4934 20.5745 83.3828L20.4551 83.3677L19.5435 78.2289C19.1569 76.0504 19.588 73.801 20.7482 71.9421C21.9085 70.0833 23.71 68.7562 25.783 68.2331C25.9213 68.1967 26.0666 68.2006 26.2029 68.2444C26.3392 68.2883 26.4612 68.3703 26.5556 68.4814L26.773 68.4027C27.6054 68.1013 28.4868 67.9731 29.3669 68.0254C30.247 68.0777 31.1086 68.3095 31.9024 68.7076C32.6962 69.1056 33.4068 69.6622 33.9935 70.3454C34.5802 71.0285 35.0316 71.8251 35.3218 72.6894L35.3757 72.8499L33.9248 73.3752C33.4727 73.5389 33.0615 73.8052 32.721 74.1547C32.3805 74.5042 32.1193 74.9281 31.9564 75.3955C31.7935 75.863 31.733 76.3623 31.7793 76.8571C31.8256 77.3519 31.9775 77.8298 32.224 78.2559L33.7075 80.8202L33.5495 80.9024C30.3478 82.6165 26.8022 83.5232 23.2001 83.549Z" fill="#2F2E41"/>
<path d="M217.632 108.14C217.697 107.812 217.831 107.502 218.024 107.233C218.217 106.964 218.465 106.743 218.75 106.584C219.034 106.425 219.349 106.333 219.672 106.314C219.994 106.295 220.317 106.35 220.617 106.475L225.764 100.315L226.865 104.396L221.808 109.62C221.573 110.129 221.166 110.531 220.665 110.75C220.163 110.969 219.602 110.989 219.087 110.806C218.572 110.624 218.14 110.252 217.871 109.76C217.603 109.269 217.518 108.693 217.632 108.14Z" fill="#FFB6B6"/>
<path d="M240.6 81.0591L242.708 80.9407L243.026 82.3325C243.026 82.3325 242.995 84.1146 241.072 87.8189C239.149 91.5233 224.252 108.016 224.252 108.016L221.026 104.214L229 95.6856L233.829 86.7466L240.6 81.0591Z" fill="#B55DBE"/>
<path d="M0.341413 174H250.659C250.749 174 250.836 173.963 250.9 173.896C250.964 173.83 251 173.74 251 173.646C251 173.551 250.964 173.461 250.9 173.395C250.836 173.328 250.749 173.291 250.659 173.291H0.341413C0.250866 173.291 0.164027 173.328 0.1 173.395C0.0359732 173.461 0 173.551 0 173.646C0 173.74 0.0359732 173.83 0.1 173.896C0.164027 173.963 0.250866 174 0.341413 174Z" fill="#CCCCCC"/>
</g>
<defs>
<clipPath id="clip0_636_977">
<rect width="251" height="174" fill="white"/>
</clipPath>
</defs>
</svg>
