<svg width="231" height="80" viewBox="0 0 231 80" fill="none" xmlns="http://www.w3.org/2000/svg">
<path d="M43.3332 77.2829C43.3332 94.0621 22.6702 25.5336 9.1651 77.2824C-4.41541 77.2824 -3.66731 -0.000400421 16.5647 1.55602e-09C36.7967 0.000400424 2.71252 77.283 43.3332 0C56.9137 0 52.671 53.2445 43.3332 77.2829Z" fill="#B55DBE" fill-opacity="0.95"/>
<path d="M81.144 27.704V51H77.4V41.112H65.944V51H62.2V27.704H65.944V37.528H77.4V27.704H81.144ZM86.1038 39.384C86.1038 37.7627 86.4131 36.2373 87.0318 34.808C87.6504 33.3787 88.5038 32.1093 89.5918 31C90.6798 29.8907 91.9384 29.0267 93.3678 28.408C94.8184 27.768 96.3651 27.448 98.0078 27.448C99.6291 27.448 101.154 27.768 102.584 28.408C104.034 29.0267 105.304 29.8907 106.392 31C107.501 32.1093 108.365 33.3787 108.984 34.808C109.624 36.2373 109.944 37.7627 109.944 39.384C109.944 41.0267 109.624 42.5627 108.984 43.992C108.365 45.4213 107.501 46.6907 106.392 47.8C105.304 48.888 104.034 49.7413 102.584 50.36C101.154 50.9573 99.6291 51.256 98.0078 51.256C96.3438 51.256 94.7971 50.9573 93.3678 50.36C91.9384 49.7413 90.6798 48.8987 89.5918 47.832C88.5038 46.744 87.6504 45.4853 87.0318 44.056C86.4131 42.6053 86.1038 41.048 86.1038 39.384ZM89.9438 39.384C89.9438 40.536 90.1464 41.6133 90.5518 42.616C90.9784 43.6187 91.5651 44.504 92.3118 45.272C93.0584 46.0187 93.9224 46.6053 94.9038 47.032C95.8851 47.4587 96.9518 47.672 98.1038 47.672C99.2131 47.672 100.248 47.4587 101.208 47.032C102.189 46.6053 103.042 46.0187 103.768 45.272C104.493 44.504 105.058 43.6187 105.464 42.616C105.89 41.6133 106.104 40.536 106.104 39.384C106.104 38.2107 105.89 37.1227 105.464 36.12C105.037 35.1173 104.461 34.232 103.736 33.464C103.01 32.696 102.157 32.0987 101.176 31.672C100.194 31.2453 99.1384 31.032 98.0078 31.032C96.8771 31.032 95.8211 31.2453 94.8398 31.672C93.8584 32.0987 92.9944 32.696 92.2478 33.464C91.5224 34.232 90.9571 35.128 90.5518 36.152C90.1464 37.1547 89.9438 38.232 89.9438 39.384ZM121.287 27.704C123.655 27.704 125.521 28.184 126.887 29.144C128.273 30.104 128.967 31.576 128.967 33.56C128.967 34.8827 128.657 36.0133 128.039 36.952C127.441 37.8693 126.599 38.584 125.511 39.096C124.423 39.5867 123.153 39.8533 121.703 39.896L121.127 37.912C122.855 37.9333 124.391 38.2107 125.735 38.744C127.079 39.256 128.145 39.992 128.935 40.952C129.724 41.8907 130.119 43.0107 130.119 44.312C130.119 45.528 129.895 46.5627 129.447 47.416C128.999 48.248 128.401 48.9307 127.655 49.464C126.908 49.9973 126.065 50.392 125.127 50.648C124.188 50.8827 123.207 51 122.183 51H114.919V27.704H121.287ZM121.895 37.624C123.004 37.624 123.815 37.304 124.327 36.664C124.86 36.0027 125.127 35.2347 125.127 34.36C125.127 33.2933 124.796 32.5147 124.135 32.024C123.473 31.5333 122.577 31.288 121.447 31.288H118.663V37.624H121.895ZM122.023 47.544C122.812 47.544 123.527 47.4373 124.167 47.224C124.807 46.9893 125.308 46.6373 125.671 46.168C126.055 45.6773 126.247 45.0693 126.247 44.344C126.247 43.5333 126.023 42.904 125.575 42.456C125.148 42.008 124.593 41.688 123.911 41.496C123.228 41.304 122.513 41.208 121.767 41.208H118.663V47.544H122.023ZM135.075 27.704H138.819V51H135.075V27.704ZM164.175 27.704V51H160.431V41.112H148.975V51H145.231V27.704H148.975V37.528H160.431V27.704H164.175ZM173.935 42.616C173.935 43.5333 174.17 44.376 174.639 45.144C175.13 45.8907 175.77 46.4987 176.559 46.968C177.348 47.416 178.234 47.64 179.215 47.64C180.239 47.64 181.156 47.416 181.967 46.968C182.778 46.4987 183.418 45.8907 183.887 45.144C184.356 44.376 184.591 43.5333 184.591 42.616V27.704H188.271V42.712C188.271 44.3973 187.866 45.8907 187.055 47.192C186.244 48.472 185.156 49.4747 183.791 50.2C182.426 50.904 180.9 51.256 179.215 51.256C177.551 51.256 176.036 50.904 174.671 50.2C173.306 49.4747 172.218 48.472 171.407 47.192C170.618 45.8907 170.223 44.3973 170.223 42.712V27.704H173.935V42.616ZM200.662 27.704C203.03 27.704 204.896 28.184 206.262 29.144C207.648 30.104 208.342 31.576 208.342 33.56C208.342 34.8827 208.032 36.0133 207.414 36.952C206.816 37.8693 205.974 38.584 204.886 39.096C203.798 39.5867 202.528 39.8533 201.078 39.896L200.502 37.912C202.23 37.9333 203.766 38.2107 205.11 38.744C206.454 39.256 207.52 39.992 208.31 40.952C209.099 41.8907 209.494 43.0107 209.494 44.312C209.494 45.528 209.27 46.5627 208.822 47.416C208.374 48.248 207.776 48.9307 207.03 49.464C206.283 49.9973 205.44 50.392 204.502 50.648C203.563 50.8827 202.582 51 201.558 51H194.294V27.704H200.662ZM201.27 37.624C202.379 37.624 203.19 37.304 203.702 36.664C204.235 36.0027 204.502 35.2347 204.502 34.36C204.502 33.2933 204.171 32.5147 203.51 32.024C202.848 31.5333 201.952 31.288 200.822 31.288H198.038V37.624H201.27ZM201.398 47.544C202.187 47.544 202.902 47.4373 203.542 47.224C204.182 46.9893 204.683 46.6373 205.046 46.168C205.43 45.6773 205.622 45.0693 205.622 44.344C205.622 43.5333 205.398 42.904 204.95 42.456C204.523 42.008 203.968 41.688 203.286 41.496C202.603 41.304 201.888 41.208 201.142 41.208H198.038V47.544H201.398Z" fill="#B55DBE"/>
</svg>
