<svg width="309" height="272" viewBox="0 0 309 272" fill="none" xmlns="http://www.w3.org/2000/svg">
<g clip-path="url(#clip0_636_866)">
<path d="M236.384 166.661C236.069 165.693 233.681 166.119 233.452 165.254C233.223 164.392 235.515 163.669 237.273 161.24C237.59 160.802 239.587 158.042 238.821 156.881C237.369 154.68 227.266 160.161 224.841 157.085C224.309 156.41 224.09 155.251 222.504 153.095C221.874 152.237 221.469 151.822 220.985 151.835C220.299 151.852 220.054 152.713 218.976 154.272C217.359 156.611 216.775 156.317 215.71 158.233C214.919 159.656 214.825 160.565 214.255 160.618C213.448 160.694 213.115 158.923 212.129 158.854C211.123 158.784 210.116 160.534 209.617 161.901C208.68 164.467 209.26 166.428 209.388 168.382C209.528 170.506 209.2 173.615 206.899 177.606L185.199 212.284C189.86 205.215 203.089 185.937 208.418 178.866C209.957 176.824 211.61 174.774 214.155 174.389C216.606 174.018 219.587 175.233 223.748 175.163C224.234 175.154 225.586 175.114 225.915 174.395C226.187 173.801 225.512 173.284 225.758 172.725C226.087 171.976 227.57 172.297 229.59 171.799C231.015 171.448 231.983 170.868 232.815 170.37C233.066 170.219 236.804 167.948 236.384 166.661Z" fill="#F2F2F2"/>
<path d="M179.548 174.757C178.984 174.633 178.503 175.932 178.014 175.795C177.526 175.659 177.834 174.322 177.152 172.756C177.029 172.474 176.255 170.694 175.466 170.736C173.97 170.816 173.737 177.371 171.532 177.677C171.048 177.744 170.418 177.518 168.905 177.676C168.304 177.739 167.984 177.819 167.851 178.06C167.661 178.403 168.012 178.772 168.463 179.753C169.141 181.224 168.829 181.426 169.459 182.504C169.927 183.303 170.345 183.612 170.207 183.908C170.011 184.327 169.048 183.98 168.73 184.446C168.405 184.921 168.971 185.922 169.496 186.562C170.481 187.763 171.608 188.044 172.602 188.544C173.681 189.088 175.108 190.147 176.396 192.431L187.104 213.12C184.99 208.785 179.373 196.711 177.451 192.046C176.896 190.7 176.37 189.295 176.916 187.93C177.441 186.617 178.896 185.5 180.062 183.431C180.199 183.19 180.569 182.512 180.312 182.143C180.1 181.837 179.652 182.021 179.45 181.739C179.178 181.36 179.763 180.723 180.102 179.585C180.342 178.782 180.337 178.138 180.333 177.585C180.332 177.418 180.299 174.922 179.548 174.757Z" fill="#F2F2F2"/>
<path d="M190.231 179.805L190.567 176.688L190.774 176.492C191.729 175.587 192.326 174.628 192.55 173.641C192.586 173.484 192.614 173.325 192.642 173.163C192.754 172.522 192.893 171.726 193.507 170.898C193.851 170.437 194.76 169.395 195.698 169.759C195.951 169.854 196.122 170.019 196.241 170.193C196.27 170.163 196.301 170.133 196.334 170.1C196.739 169.705 197.022 169.561 197.295 169.421C197.505 169.314 197.721 169.204 198.088 168.91C198.249 168.781 198.378 168.665 198.486 168.567C198.815 168.272 199.236 167.927 199.813 168.064C200.424 168.232 200.634 168.816 200.773 169.204C201.021 169.894 201.097 170.369 201.148 170.684C201.166 170.799 201.187 170.929 201.203 170.971C201.337 171.309 203.017 171.396 203.648 171.433C205.069 171.51 206.298 171.577 206.593 172.553C206.806 173.251 206.364 174.012 205.242 174.875C204.892 175.144 204.543 175.329 204.239 175.468C204.426 175.645 204.575 175.887 204.584 176.216C204.605 176.994 203.809 177.591 202.219 177.994C201.824 178.095 201.292 178.229 200.597 178.195C200.269 178.179 199.982 178.129 199.737 178.082C199.701 178.221 199.634 178.367 199.514 178.505C199.16 178.911 198.588 179.014 197.812 178.785C196.956 178.546 196.279 178.22 195.682 177.934C195.16 177.685 194.711 177.472 194.333 177.414C193.631 177.315 192.977 177.75 192.194 178.328L190.231 179.805Z" fill="#F2F2F2"/>
<path d="M195.832 162.052L192.741 162.516L192.5 162.365C191.385 161.668 190.308 161.332 189.299 161.365C189.139 161.37 188.979 161.384 188.816 161.397C188.169 161.451 187.366 161.519 186.412 161.133C185.88 160.916 184.645 160.298 184.758 159.296C184.785 159.026 184.901 158.818 185.039 158.659C185.002 158.638 184.965 158.616 184.925 158.592C184.442 158.3 184.23 158.061 184.027 157.832C183.87 157.655 183.709 157.473 183.332 157.192C183.167 157.069 183.023 156.973 182.901 156.893C182.533 156.648 182.094 156.327 182.079 155.733C182.086 155.098 182.597 154.746 182.935 154.513C183.538 154.097 183.976 153.902 184.267 153.773C184.374 153.726 184.493 153.673 184.53 153.647C184.822 153.431 184.48 151.78 184.355 151.157C184.07 149.759 183.822 148.55 184.688 148.016C185.307 147.633 186.154 147.869 187.271 148.738C187.618 149.009 187.886 149.301 188.097 149.561C188.22 149.334 188.415 149.128 188.73 149.036C189.476 148.819 190.253 149.439 191.045 150.88C191.243 151.238 191.507 151.72 191.65 152.403C191.718 152.725 191.742 153.016 191.759 153.265C191.903 153.265 192.06 153.293 192.224 153.375C192.705 153.616 192.95 154.144 192.926 154.955C192.912 155.847 192.77 156.586 192.645 157.238C192.537 157.807 192.446 158.297 192.485 158.678C192.569 159.384 193.154 159.909 193.91 160.522L195.832 162.052Z" fill="#F2F2F2"/>
<path d="M196.249 152.741L196.585 149.624L196.792 149.428C197.747 148.523 198.344 147.563 198.569 146.576C198.604 146.419 198.632 146.261 198.66 146.099C198.772 145.458 198.911 144.661 199.525 143.834C199.869 143.373 200.778 142.331 201.716 142.695C201.969 142.79 202.14 142.955 202.259 143.129C202.288 143.099 202.319 143.069 202.352 143.036C202.757 142.641 203.04 142.496 203.313 142.357C203.523 142.25 203.74 142.139 204.106 141.845C204.267 141.716 204.396 141.6 204.504 141.503C204.833 141.208 205.254 140.863 205.831 141C206.442 141.167 206.652 141.752 206.791 142.139C207.039 142.83 207.116 143.305 207.166 143.62C207.184 143.735 207.205 143.864 207.221 143.906C207.355 144.245 209.035 144.332 209.667 144.369C211.087 144.446 212.316 144.513 212.612 145.488C212.824 146.186 212.382 146.948 211.26 147.811C210.91 148.08 210.561 148.265 210.257 148.404C210.444 148.581 210.593 148.823 210.602 149.151C210.623 149.93 209.827 150.527 208.237 150.93C207.842 151.031 207.31 151.165 206.615 151.131C206.287 151.115 206 151.064 205.756 151.017C205.719 151.157 205.652 151.302 205.532 151.44C205.178 151.847 204.606 151.95 203.83 151.721C202.974 151.482 202.297 151.156 201.7 150.87C201.178 150.621 200.729 150.407 200.351 150.349C199.649 150.251 198.995 150.685 198.212 151.264L196.249 152.741Z" fill="#F2F2F2"/>
<path d="M186.225 212.462L185.679 211.92L184.919 211.84C184.923 211.768 184.918 211.601 184.912 211.339C184.883 209.905 184.792 205.541 185.398 198.836C185.821 194.155 186.528 189.404 187.499 184.712C188.472 180.013 189.482 176.516 190.292 173.706C190.904 171.586 191.522 169.576 192.125 167.617C193.734 162.385 195.253 157.443 196.194 151.805C196.405 150.547 196.842 147.927 195.947 144.835C195.427 143.042 194.538 141.354 193.303 139.82L194.498 138.851C195.862 140.547 196.845 142.416 197.422 144.407C198.415 147.835 197.938 150.69 197.709 152.061C196.752 157.798 195.217 162.788 193.592 168.071C192.992 170.022 192.377 172.023 191.768 174.135C190.964 176.919 189.964 180.385 189.003 185.024C188.043 189.66 187.345 194.353 186.927 198.975C186.329 205.595 186.419 209.894 186.449 211.306C186.464 212.06 186.467 212.218 186.225 212.462Z" fill="#F2F2F2"/>
<path d="M190.022 141.594C189.961 141.58 189.899 141.565 189.837 141.546C188.576 141.192 187.564 140.161 186.829 138.483C186.485 137.694 186.404 136.863 186.242 135.207C186.217 134.952 186.105 133.659 186.243 131.947C186.332 130.828 186.452 130.379 186.756 130.026C187.093 129.633 187.547 129.407 188.027 129.294C188.04 129.146 188.088 129.001 188.184 128.864C188.579 128.294 189.24 128.528 189.599 128.65C189.779 128.715 190.005 128.798 190.258 128.841C190.656 128.91 190.894 128.84 191.253 128.735C191.598 128.635 192.026 128.51 192.617 128.521C193.785 128.537 194.649 129.063 194.934 129.236C196.434 130.141 196.953 131.584 197.552 133.255C197.671 133.59 198.067 134.8 198.159 136.359C198.225 137.484 198.078 137.944 197.91 138.273C197.566 138.95 197.039 139.264 195.731 139.924C194.365 140.616 193.679 140.962 193.117 141.14C191.81 141.551 190.988 141.81 190.022 141.594Z" fill="#F2F2F2"/>
<path d="M52.333 135.237C51.3194 135.194 50.8805 137.587 49.9924 137.5C49.1074 137.413 49.2352 135.006 47.5825 132.504C47.2845 132.053 45.4063 129.21 44.0538 129.523C41.4901 130.116 43.0699 141.527 39.3482 142.728C38.5314 142.992 37.3725 142.792 34.8033 143.526C33.7811 143.818 33.2526 144.053 33.0947 144.512C32.8707 145.162 33.5886 145.694 34.667 147.254C36.2844 149.592 35.8059 150.037 37.2221 151.709C38.2734 152.95 39.0892 153.357 38.9395 153.911C38.7277 154.696 36.9571 154.389 36.5476 155.291C36.1297 156.212 37.4111 157.771 38.513 158.719C40.5807 160.497 42.615 160.639 44.4851 161.203C46.5173 161.816 49.3055 163.213 52.226 166.772L77.0084 199.306C72.0391 192.452 58.6708 173.271 53.9345 165.786C52.5672 163.626 51.2323 161.355 51.7636 158.829C52.2751 156.397 54.4548 154.022 55.8462 150.087C56.0087 149.628 56.4448 148.343 55.8886 147.782C55.4288 147.318 54.7096 147.772 54.2739 147.345C53.6894 146.773 54.5089 145.493 54.7518 143.421C54.923 141.959 54.7205 140.847 54.5463 139.89C54.4938 139.602 53.6822 135.294 52.333 135.237Z" fill="#F2F2F2"/>
<path d="M39.9858 191.471C39.6725 191.958 40.7167 192.864 40.4176 193.276C40.1196 193.687 38.9791 192.929 37.2779 193.021C36.9711 193.038 35.0378 193.142 34.8008 193.898C34.3514 195.331 40.3911 197.846 39.9049 200.025C39.7982 200.503 39.3659 201.016 38.9838 202.493C38.8318 203.08 38.7943 203.408 38.9731 203.618C39.2268 203.916 39.6944 203.716 40.7684 203.635C42.3793 203.514 42.4592 203.878 43.6859 203.663C44.5965 203.503 45.0308 203.219 45.2589 203.453C45.5818 203.783 44.9207 204.567 45.244 205.028C45.574 205.5 46.7065 205.319 47.4882 205.05C48.9551 204.545 49.6116 203.585 50.427 202.827C51.3131 202.003 52.8013 201.033 55.3855 200.623L78.4554 197.809C73.6676 198.278 60.4249 199.325 55.3961 199.497C53.9445 199.547 52.4479 199.549 51.3651 198.558C50.3227 197.605 49.7895 195.846 48.2659 194.026C48.0879 193.814 47.5851 193.228 47.1502 193.34C46.7906 193.433 46.8049 193.918 46.4705 194.009C46.0219 194.132 45.632 193.359 44.6879 192.641C44.0222 192.135 43.4195 191.914 42.9011 191.724C42.7448 191.667 40.403 190.823 39.9858 191.471Z" fill="#F2F2F2"/>
<path d="M48.4413 183.203L45.6486 181.795L45.5381 181.532C45.0272 180.318 44.3408 179.421 43.4974 178.864C43.3633 178.776 43.2248 178.694 43.0837 178.611C42.5244 178.282 41.829 177.872 41.2715 177.005C40.9614 176.521 40.3069 175.301 40.9753 174.548C41.1528 174.343 41.3664 174.24 41.5709 174.19C41.5531 174.151 41.5356 174.112 41.5164 174.07C41.2896 173.551 41.2537 173.234 41.2193 172.929C41.1926 172.694 41.1655 172.452 41.0193 172.005C40.9552 171.808 40.8919 171.647 40.8389 171.511C40.6789 171.098 40.5041 170.582 40.8337 170.088C41.2043 169.572 41.8238 169.58 42.234 169.585C42.9659 169.594 43.4361 169.689 43.748 169.751C43.8618 169.774 43.9902 169.8 44.0351 169.8C44.3978 169.793 45.0677 168.245 45.3232 167.665C45.8929 166.357 46.3858 165.226 47.4003 165.29C48.1263 165.335 48.6823 166.017 49.0957 167.373C49.2242 167.796 49.275 168.189 49.2977 168.523C49.529 168.409 49.8067 168.354 50.117 168.461C50.851 168.714 51.13 169.671 50.949 171.306C50.9051 171.712 50.8439 172.259 50.5687 172.9C50.4388 173.202 50.2913 173.454 50.1618 173.668C50.2795 173.751 50.3918 173.865 50.4784 174.026C50.7339 174.501 50.6302 175.074 50.1446 175.723C49.621 176.444 49.0799 176.965 48.6035 177.426C48.1881 177.829 47.8315 178.177 47.645 178.511C47.3072 179.136 47.4839 179.903 47.7497 180.842L48.4413 183.203Z" fill="#F2F2F2"/>
<path d="M33.8254 171.722L33.176 174.789L32.9508 174.962C31.9093 175.766 31.2181 176.66 30.8955 177.619C30.8442 177.772 30.8007 177.927 30.7562 178.085C30.5804 178.711 30.3619 179.49 29.6673 180.25C29.2788 180.674 28.2689 181.618 27.3725 181.161C27.1303 181.041 26.9769 180.86 26.8765 180.674C26.8438 180.701 26.8104 180.728 26.7746 180.757C26.3317 181.109 26.0351 181.224 25.7494 181.335C25.5299 181.42 25.3033 181.508 24.9089 181.763C24.7359 181.875 24.5961 181.978 24.4783 182.064C24.1211 182.324 23.6675 182.624 23.1077 182.43C22.5165 182.201 22.367 181.598 22.2678 181.199C22.0905 180.486 22.0623 180.006 22.0437 179.688C22.0372 179.571 22.0293 179.44 22.0176 179.397C21.9187 179.047 20.2567 178.789 19.6318 178.689C18.2265 178.467 17.0105 178.276 16.8149 177.275C16.6743 176.56 17.1909 175.847 18.394 175.102C18.7687 174.87 19.135 174.721 19.4517 174.614C19.2834 174.419 19.1594 174.163 19.1835 173.835C19.2416 173.059 20.0937 172.546 21.7163 172.306C22.1196 172.246 22.6619 172.167 23.3504 172.271C23.6746 172.32 23.955 172.4 24.1937 172.471C24.2441 172.336 24.3253 172.198 24.4592 172.073C24.8523 171.705 25.4313 171.66 26.18 171.967C27.008 172.292 27.6484 172.684 28.2136 173.03C28.7073 173.331 29.1332 173.588 29.5028 173.685C30.1912 173.854 30.8861 173.488 31.7238 172.992L33.8254 171.722Z" fill="#F2F2F2"/>
<path d="M25.2764 168.069L22.4837 166.661L22.3732 166.399C21.8623 165.184 21.1758 164.287 20.3325 163.731C20.1984 163.642 20.0598 163.56 19.9188 163.477C19.3595 163.148 18.6641 162.738 18.1066 161.871C17.7965 161.387 17.142 160.168 17.8104 159.414C17.9879 159.21 18.2015 159.107 18.406 159.056C18.3881 159.018 18.3707 158.978 18.3515 158.936C18.1246 158.417 18.0888 158.1 18.0544 157.795C18.0277 157.56 18.0006 157.318 17.8544 156.871C17.7903 156.675 17.727 156.513 17.674 156.377C17.514 155.964 17.3392 155.448 17.6688 154.954C18.0394 154.439 18.6589 154.447 19.0691 154.452C19.801 154.46 20.2712 154.555 20.5831 154.618C20.6969 154.641 20.8253 154.666 20.8702 154.666C21.2329 154.659 21.9028 153.112 22.1583 152.531C22.728 151.223 23.2209 150.092 24.2354 150.156C24.9614 150.201 25.5174 150.883 25.9308 152.239C26.0593 152.662 26.1101 153.055 26.1328 153.389C26.3641 153.276 26.6418 153.22 26.9521 153.327C27.6861 153.58 27.9651 154.537 27.7841 156.172C27.7402 156.579 27.679 157.125 27.4038 157.766C27.2739 158.069 27.1264 158.32 26.9968 158.534C27.1146 158.617 27.2269 158.731 27.3135 158.892C27.569 159.367 27.4653 159.94 26.9796 160.589C26.4561 161.31 25.915 161.832 25.4386 162.292C25.0232 162.695 24.6666 163.043 24.4801 163.377C24.1423 164.002 24.3189 164.769 24.5848 165.708L25.2764 168.069Z" fill="#F2F2F2"/>
<path d="M77.5334 198.404L76.8363 198.728L76.495 199.414C76.4294 199.385 76.2712 199.331 76.0248 199.245C74.6756 198.77 70.5688 197.327 64.5198 194.409C60.2972 192.372 56.1081 190.044 52.0668 187.488C48.0192 184.928 45.1077 182.755 42.7674 181.009C41.0024 179.691 39.3413 178.407 37.7238 177.154C33.4016 173.81 29.3185 170.651 24.3837 167.793C23.2824 167.154 20.9893 165.826 17.7885 165.584C15.932 165.444 14.0443 165.688 12.1789 166.312L11.6932 164.849C13.7539 164.162 15.8439 163.893 17.9052 164.048C21.4541 164.316 23.9527 165.764 25.1532 166.459C30.1751 169.368 34.2972 172.558 38.6609 175.934C40.273 177.182 41.9265 178.461 43.6844 179.773C46.0029 181.503 48.8893 183.657 52.8849 186.184C56.8777 188.71 61.0157 191.009 65.1847 193.021C71.1577 195.902 75.2035 197.323 76.5327 197.79C77.2421 198.04 77.3907 198.092 77.5334 198.404Z" fill="#F2F2F2"/>
<path d="M12.6864 170.015C12.6521 170.068 12.616 170.12 12.577 170.172C11.8042 171.233 10.4872 171.822 8.66281 171.925C7.80551 171.972 7.00158 171.757 5.39829 171.329C5.1509 171.263 3.905 170.916 2.35425 170.187C1.34076 169.711 0.963075 169.44 0.739892 169.032C0.490846 168.577 0.439696 168.072 0.502272 167.581C0.368467 167.517 0.250117 167.421 0.155462 167.283C-0.238342 166.712 0.211855 166.173 0.451249 165.879C0.575312 165.732 0.731447 165.549 0.860109 165.326C1.06397 164.977 1.0817 164.729 1.11015 164.354C1.13711 163.996 1.17062 163.55 1.38772 162.998C1.81164 161.907 2.60575 161.279 2.86729 161.072C4.23759 159.979 5.76662 159.998 7.53695 160.019C7.89144 160.025 9.1604 160.077 10.6484 160.537C11.7219 160.868 12.1003 161.168 12.3487 161.441C12.8601 162.001 12.9685 162.606 13.1267 164.066C13.294 165.592 13.3771 166.357 13.3463 166.948C13.2728 168.321 13.2267 169.183 12.6864 170.015Z" fill="#F2F2F2"/>
<path d="M30.2607 214.063C30.2607 214.31 30.6056 214.508 31.035 214.508H277.659C278.089 214.508 278.434 214.31 278.434 214.063C278.434 213.817 278.089 213.619 277.659 213.619H31.035C30.6056 213.619 30.2607 213.817 30.2607 214.063Z" fill="#CCCCCC"/>
<path d="M122.674 68.1075C129.248 68.1075 134.576 62.7625 134.576 56.1691C134.576 49.5757 129.248 44.2307 122.674 44.2307C116.101 44.2307 110.772 49.5757 110.772 56.1691C110.772 62.7625 116.101 68.1075 122.674 68.1075Z" fill="#FF6884"/>
<path d="M176.335 212.061C176.402 212.632 176.422 213.164 176.383 213.686H147.757C147.497 213.164 147.275 212.622 147.082 212.061C143.582 201.974 149.338 185.185 142.04 160.292C136.621 141.82 126.507 127.372 121.792 120.641C115.997 112.362 109.431 104.722 101.824 92.5173C100.175 89.8771 98.4784 87.0145 96.7236 83.8907C96.1355 82.8463 89.3574 70.7285 89.9745 70.3513C90.2637 70.1772 92.057 72.6239 92.6645 73.446C98.0253 80.7186 101.14 83.9004 105.604 89.1324C108.313 92.3046 111.514 96.2213 116.007 102.266C127.529 117.749 133.285 125.486 135.29 131.279C135.821 132.826 138.646 141.201 143.968 151.588C146.687 156.888 148.046 159.538 148.789 159.325C150.891 158.716 148.056 136.772 139.147 114.838C137.624 111.105 136.486 108.716 134.326 104.2C130.817 96.8306 111.273 55.8737 96.9068 31.3576C95.1038 28.2725 93.378 25.4582 91.7871 22.9921C91.4786 22.5279 91.1797 22.0734 90.8904 21.6382C88.885 18.6401 87.1109 16.2707 85.6357 14.7427C84.8547 13.9303 82.8686 11.6286 78.8865 7.0059C77.3053 5.16837 76.1483 3.80478 75.3673 2.80863C75.2516 2.6636 75.1456 2.51851 75.0588 2.39279C74.1139 1.15492 73.844 0.555264 74.0657 0.236163C74.3839 -0.218407 75.6083 0.0427316 76.9485 0.516601C77.0932 0.564946 77.2474 0.622969 77.3921 0.680991C78.848 1.22257 80.3231 1.92859 80.8149 2.17037C85.3272 4.34636 89.7334 8.24376 93.8118 12.8762C95.3256 14.588 96.7815 16.3964 98.1892 18.2533C102.721 24.2493 106.674 30.7773 109.663 36.1448C113.327 42.7597 115.525 47.6243 115.525 47.6243C125.755 70.2836 137.103 96.202 137.701 95.9795C138.356 95.7378 125.774 63.4752 122.11 45.9512C120.886 40.0809 120.664 35.8643 122.274 35.0519C122.332 35.0229 122.39 34.9939 122.457 34.9746C122.708 34.8875 122.939 34.8972 123.065 34.9068C123.065 34.9068 124.559 34.7134 126.131 35.0519C128.088 35.4775 130.315 40.9416 132.485 48.6107C138.125 68.3783 143.486 102.749 143.486 102.749C148.847 137.13 156.984 164.953 158.912 164.644C159.983 164.47 158.45 155.834 159.877 141.433C160.879 131.337 162.017 131.646 165.662 113.387C171.447 84.4226 174.339 69.945 174.339 69.8677C174.31 69.2584 174.233 68.0302 174.416 66.7536C174.609 65.3707 175.101 63.92 176.267 63.098C178.042 61.8408 180.895 62.3823 182.052 63.098C182.978 63.6782 183.451 64.7421 183.557 66.2701C184.193 75.8831 170.425 103.755 165.662 141.433C163.29 160.205 161.988 170.447 165.662 183.986C169.297 197.41 175.631 205.959 176.335 212.061Z" fill="#CCCCCC"/>
<path d="M223.942 209.1L226.37 201.584L248.495 211.312L246.85 216.405L223.942 209.1Z" fill="#A0616A"/>
<path d="M241.628 207.904L241.801 210.909L243.345 211.507C243.345 211.507 241.321 211.427 239.651 214.582L240.995 215.56C240.995 215.56 241.966 217.414 244.705 218.228L252.139 220.155L253.047 217.639L248.257 215.309C248.257 215.309 247.4 214.185 253.959 213.099C253.959 213.099 256.173 212.619 256.458 206.519C256.498 205.681 256.007 204.896 255.223 204.602C254.79 204.44 254.327 204.454 253.975 204.94C253.078 206.176 253.018 207.701 251.576 208.164C250.135 208.627 241.628 207.904 241.628 207.904Z" fill="#2F2E41"/>
<path d="M210.353 225.617L213.338 218.305L234.671 229.675L232.649 234.63L210.353 225.617Z" fill="#A0616A"/>
<path d="M228.079 225.758L228.026 228.768L229.521 229.481C229.521 229.481 227.508 229.249 225.607 232.269L226.873 233.345C226.873 233.345 227.702 235.267 230.373 236.285L237.642 238.767L238.736 236.327L234.134 233.643C234.134 233.643 233.364 232.457 239.985 231.869C239.985 231.869 242.229 231.558 242.971 225.496C243.073 224.663 242.642 223.844 241.883 223.492C241.463 223.297 241.001 223.276 240.613 223.734C239.626 224.899 239.451 226.416 237.979 226.769C236.508 227.121 228.079 225.758 228.079 225.758Z" fill="#2F2E41"/>
<path d="M171.716 146.568C172.566 147.391 174.754 145.591 174.835 146.774C174.916 147.956 172.89 152.111 172.16 153.043C171.797 153.506 171.352 153.901 170.993 154.367C170.634 154.833 170.358 155.405 170.415 155.992C170.514 157.013 171.543 157.687 171.889 158.652C172.292 159.776 171.694 160.99 171.099 162.025C170.586 162.916 170.054 163.812 169.325 164.537C168.596 165.262 167.64 165.809 166.614 165.842C165.308 165.886 164.125 165.117 163.083 164.326C162.081 163.565 161.108 162.746 160.349 161.741C159.591 160.737 159.054 159.528 159.026 158.268C158.991 156.688 159.76 155.17 160.836 154.015C161.912 152.861 163.277 152.022 164.654 151.252C166.972 149.957 169.377 148.817 171.847 147.844" fill="#2F2E41"/>
<path d="M167.317 160.734C171.446 160.734 174.793 157.377 174.793 153.236C174.793 149.095 171.446 145.737 167.317 145.737C163.188 145.737 159.841 149.095 159.841 153.236C159.841 157.377 163.188 160.734 167.317 160.734Z" fill="#A0616A"/>
<path d="M178.251 174.461L186.017 187.77L200.556 195.477L196.778 198.994L182.646 193.648L172.858 181.039L173.651 174.904L178.251 174.461Z" fill="#A0616A"/>
<path d="M162.256 161.761L169.01 163.533L168.913 166.786L174.638 176.596C174.638 176.596 180.054 182.824 175.403 187.342L178.245 190.546L158.981 198.608L150.515 174.665L158.237 165.42L162.256 161.761Z" fill="#B55DBE"/>
<path d="M167.707 167.494C167.707 167.494 171.785 162.826 174.95 167.14C178.115 171.454 179.692 176.376 179.692 176.376L172.223 179.95L167.707 167.494Z" fill="#B55DBE"/>
<path d="M157.531 197.51C157.531 197.51 174.367 187.787 177.801 189.508L184.281 197.56L190.368 197.723L216.897 194.948L230.054 203.011L224.47 209.538L215.409 205.112L201.961 209.883C201.961 209.883 206.866 210.453 207.022 213.772L217.462 219.175L210.149 226.068L195.943 218.653C195.943 218.653 171.601 217.201 164.045 208.961C156.49 200.72 157.531 197.51 157.531 197.51Z" fill="#2F2E41"/>
<path d="M162.574 158.975L163.677 156.703C163.677 156.703 172.005 149.052 174.424 151.531L174.7 154.779C174.7 154.779 176.189 154.555 175.733 152.386C175.277 150.217 176.153 151.165 176.153 151.165C176.153 151.165 178.074 150.849 176.654 149.247C175.233 147.644 175.218 144.567 170.361 145.956C167.663 146.728 164.29 148.398 161.824 149.73C159.056 151.225 158.205 154.892 160.156 157.364C160.739 158.103 161.522 158.699 162.574 158.975Z" fill="#2F2E41"/>
<path d="M205.464 202.017C206.514 200.529 205.501 198 203.202 196.368C200.903 194.736 198.188 194.619 197.138 196.107C196.088 197.595 197.101 200.124 199.401 201.756C201.7 203.388 204.415 203.505 205.464 202.017Z" fill="#A0616A"/>
<path d="M189.394 161.353L190.139 163.596H189.394C189.394 163.596 190.325 168.642 187.344 169.39C184.363 170.137 181.612 165.371 181.612 165.371L180.263 166.025C180.263 166.025 181.381 171.632 177.282 172.38C173.183 173.128 171.692 168.268 171.692 168.268L162.002 169.016L162.375 166.025L171.153 166.905C171.153 166.905 170.946 164.53 176.164 164.156L183.617 162.661L189.394 161.353Z" fill="#2F2E41"/>
<path d="M158.37 173.139L158.134 177.176L171.076 172.989L171.184 177.083L155.731 187.959C155.731 187.959 151.238 181.564 150.707 179.351C150.177 177.137 150.453 173.726 150.453 173.726L158.37 173.139Z" fill="#A0616A"/>
<path d="M160.311 166.476C160.311 166.476 155.757 162.003 153.369 165.679C150.98 169.356 149.712 175.786 149.712 175.786L159.167 174.783L160.311 166.476Z" fill="#B55DBE"/>
<path d="M156.201 162.458C157.26 165.317 157.345 168.527 156.439 171.438C158.596 171.01 160.4 169.384 161.384 167.412C162.368 165.441 162.604 163.161 162.422 160.964L162.416 160.898C162.131 157.597 164.008 154.483 167.088 153.285C169.166 152.477 171.096 151.286 172.734 149.771C173.659 148.915 174.553 147.772 174.354 146.525C174.171 145.377 173.128 144.59 172.137 143.986C169.875 142.607 167.376 141.504 164.736 141.308C162.096 141.113 159.292 141.93 157.509 143.892C155.725 145.855 155.227 149.041 156.72 151.234C156.059 151.272 155.459 151.807 155.344 152.461C155.228 153.114 155.609 153.823 156.217 154.086C155.808 153.963 155.422 154.445 155.468 154.871C155.515 155.297 155.832 155.637 156.142 155.932C156.584 156.351 157.079 156.798 156.888 157.543C156.811 157.841 156.629 158.103 156.393 158.3C155.82 158.777 155.073 158.864 154.356 158.941C155.629 159.711 156.407 161.237 156.284 162.723" fill="#2F2E41"/>
<path d="M174.097 176.007C176.077 173.998 176.634 171.33 175.341 170.049C174.048 168.768 171.396 169.358 169.416 171.368C167.436 173.378 166.879 176.045 168.172 177.327C169.464 178.608 172.117 178.017 174.097 176.007Z" fill="#A0616A"/>
<path d="M284.869 79.5922C283.797 80.1968 282.065 77.8054 281.673 78.9752C281.281 80.1449 282.231 84.8647 282.721 85.9966C282.965 86.5593 283.309 87.0739 283.548 87.6385C283.787 88.2031 283.916 88.8523 283.704 89.428C283.337 90.4298 282.123 90.8373 281.521 91.7178C280.82 92.7433 281.103 94.1246 281.431 95.3237C281.713 96.3573 282.014 97.4002 282.558 98.3228C283.102 99.2454 283.921 100.049 284.945 100.354C286.249 100.743 287.643 100.281 288.9 99.7593C290.109 99.2579 291.305 98.6896 292.332 97.8785C293.36 97.0675 294.218 95.9909 294.577 94.7295C295.028 93.1473 294.652 91.4157 293.871 89.9683C293.091 88.5208 291.936 87.315 290.752 86.1765C288.757 84.2591 286.634 82.4757 284.401 80.8424" fill="#2F2E41"/>
<path d="M300.822 160.778L298.586 181.712C298.586 181.712 303.803 192.552 298.213 205.635L297.84 213.112L291.505 212.364L292.995 206.009L289.641 180.216L287.033 161.526L300.822 160.778Z" fill="#FFB6B6"/>
<path d="M282.933 160.405C282.933 160.405 284.424 176.852 281.443 185.45C281.443 185.45 282.933 198.533 278.834 212.364V222.661L272.126 221.335L272.498 182.833L270.635 161.9L282.933 160.405Z" fill="#FFB6B6"/>
<path d="M281.98 96.386C283.869 98.773 287.2 99.4648 289.888 98.0439C293.725 96.0158 298.964 93.6913 299.89 95.5487C301.381 98.5392 301.381 101.441 301.381 101.441L302.871 136.294C302.871 136.294 303.617 150.366 294.3 149.124C284.983 147.882 270.449 153.115 270.449 153.115L271.933 137.675L275.898 131.854L277.503 115.153L274.734 101.717L278.089 100.221C278.089 100.221 278.461 97.6046 279.579 97.6046C280.697 97.6046 280.967 95.091 281.95 96.3478L281.98 96.386Z" fill="#B55DBE"/>
<path d="M301.567 135.733L302.312 177.426C302.312 177.426 295.604 187.893 288.523 179.295L284.424 158.535L283.679 182.66C283.679 182.66 273.616 187.893 270.635 183.781L270.449 153.115L277.343 139.097L301.567 135.733Z" fill="#2F2E41"/>
<path d="M298.06 208.707C298.06 208.707 300.449 210.495 299.704 212.738C298.958 214.981 293.368 223.578 288.523 222.457C283.679 221.335 285.915 218.719 285.915 218.719L291.505 210.495C291.505 210.495 293.741 210.869 294.859 211.616C295.977 212.364 298.06 208.707 298.06 208.707Z" fill="#2F2E41"/>
<path d="M278.834 219.466C278.834 219.466 282.933 223.578 280.697 225.447C278.461 227.316 263.182 228.811 263.554 226.569C263.927 224.326 271.753 217.971 271.753 217.971C271.753 217.971 273.989 217.223 274.735 219.092C275.48 220.962 278.834 219.466 278.834 219.466Z" fill="#2F2E41"/>
<path d="M287.548 95.2774C291.847 95.2774 295.331 91.7822 295.331 87.4707C295.331 83.1592 291.847 79.6641 287.548 79.6641C283.25 79.6641 279.766 83.1592 279.766 87.4707C279.766 91.7822 283.25 95.2774 287.548 95.2774Z" fill="#FFB6B6"/>
<path d="M296.322 99.697C294.506 102.296 293.577 105.508 293.724 108.678C291.664 107.678 290.274 105.563 289.801 103.317C289.328 101.071 289.689 98.7132 290.449 96.5481C290.457 96.5264 290.465 96.5048 290.472 96.4832C291.627 93.2333 290.554 89.6011 287.766 87.5809C285.885 86.2182 284.254 84.5086 283.002 82.549C282.296 81.4427 281.695 80.0549 282.223 78.8524C282.709 77.7444 283.966 77.2265 285.123 76.88C287.764 76.0887 290.57 75.6385 293.28 76.1391C295.991 76.6398 298.601 78.2034 299.882 80.6513C301.163 83.0991 300.827 86.4399 298.748 88.2545C299.404 88.4672 299.868 89.1645 299.812 89.8536C299.756 90.5427 299.186 91.1559 298.505 91.2598C298.949 91.244 299.212 91.8313 299.053 92.2482C298.895 92.6652 298.486 92.9241 298.096 93.1387C297.54 93.4444 296.924 93.7641 296.922 94.5645C296.921 94.8855 297.035 95.197 297.222 95.4579C297.673 96.09 298.403 96.3747 299.105 96.642C297.62 97.0808 296.436 98.4122 296.17 99.942" fill="#2F2E41"/>
<path d="M294.041 143.612C292.331 144.886 290.29 145.034 289.482 143.942C288.674 142.85 289.405 140.933 291.116 139.659C291.792 139.141 292.583 138.792 293.421 138.643L300.735 133.338L303.143 136.834L295.678 141.692C295.293 142.454 294.732 143.113 294.041 143.612Z" fill="#FFB6B6"/>
<path d="M298.649 100.408C298.649 100.408 304.548 100.595 305.666 104.707C306.784 108.819 309.02 117.583 308.648 129.752C308.648 129.752 310.511 137.602 305.666 137.228L298.958 140.219L294.486 134.238L298.213 129.752L298.649 100.408Z" fill="#B55DBE"/>
<path d="M128.78 232.918L123.202 220.821L117.015 223.942L120.491 234.876L126.697 237.916L128.78 232.918Z" fill="#FFB6B6"/>
<path d="M84.7587 198.306C85.2555 198.53 86.7668 199.435 88.6247 199.13C89.8927 198.921 90.7445 198.244 91.0262 198.033C94.52 195.408 105.165 193.162 113.136 195.624C114.942 196.181 116.039 196.804 116.907 197.739C118.137 199.064 118.341 200.409 119.32 203.737C119.856 205.557 120.533 207.334 121.085 209.15C124.315 219.78 126.435 221.278 125.24 223.893C123.915 226.795 119.688 228.493 117.663 227.403C116.833 226.957 116.71 226.225 115.975 224.57C113.822 219.718 112.164 219.884 110.7 216.234C108.992 211.972 110.316 209.413 108.863 208.779C107.516 208.192 106.117 210.279 102.09 212.282C100.247 213.198 99.0594 213.497 95.4114 214.494C81.2052 218.376 80.8262 218.869 78.3014 218.684C77.1967 218.603 69.3563 218.028 67.9154 213.996C65.6605 207.687 80.282 196.282 84.7587 198.306Z" fill="#2F2E41"/>
<path d="M125.387 233.997C126.133 233.936 127.005 233.865 127.523 233.171C127.873 232.702 128.008 232.018 127.828 231.448C127.621 230.791 127.067 230.517 127.122 230.433C127.207 230.306 128.556 230.847 129.869 231.913C130.117 232.114 131.234 233.041 132.415 234.9C133.362 236.389 133.113 236.532 133.725 237.414C135.602 240.122 138.469 239.532 139.23 241.717C139.524 242.56 139.42 243.571 138.932 244.246C137.953 245.601 135.608 245.353 134.332 245.202C131.259 244.839 129.293 243.545 127.179 242.366C119.99 238.356 115.278 238.007 115.331 236.025C115.341 235.651 115.507 235.742 116.968 233.484C118.411 231.255 118.628 230.58 119.192 230.561C120.042 230.532 120.071 232.046 121.789 233.17C123.311 234.167 124.903 234.037 125.387 233.997Z" fill="#2F2E41"/>
<path d="M103.581 256.784L105.738 243.633L98.8707 242.731L95.6268 253.736L99.0594 259.747L103.581 256.784Z" fill="#FFB6B6"/>
<path d="M85.7874 203.349C86.0728 203.815 86.8166 205.415 88.525 206.209C89.6909 206.751 90.7749 206.67 91.1263 206.654C95.4868 206.45 105.552 210.587 110.77 217.114C111.952 218.592 112.511 219.726 112.706 220.988C112.982 222.778 112.398 224.004 111.345 227.31C110.769 229.118 110.335 230.97 109.775 232.783C106.497 243.399 107.412 245.831 104.959 247.323C102.238 248.977 97.7903 248.002 96.7241 245.959C96.2874 245.123 96.5952 244.447 96.914 242.665C97.8487 237.437 96.3838 236.64 97.2163 232.795C98.1882 228.307 100.717 226.935 99.8694 225.592C99.0833 224.347 96.7572 225.287 92.3036 224.676C90.2657 224.396 89.1159 223.974 85.5392 222.745C71.611 217.955 71.0214 218.15 69.0358 216.574C68.1671 215.885 61.7954 210.935 63.0663 206.846C68.8947 188.091 83.2161 199.153 85.7874 203.349Z" fill="#2F2E41"/>
<path d="M99.4239 255.766C100.075 256.136 100.837 256.568 101.654 256.286C102.206 256.095 102.701 255.605 102.871 255.032C103.068 254.371 102.762 253.832 102.855 253.795C102.997 253.738 103.81 254.944 104.3 256.566C104.392 256.872 104.798 258.268 104.734 260.472C104.684 262.237 104.398 262.215 104.41 263.289C104.448 266.588 107.15 267.714 106.557 269.951C106.328 270.814 105.675 271.592 104.894 271.876C103.326 272.446 101.524 270.92 100.553 270.076C98.2135 268.044 97.3107 265.866 96.2215 263.7C92.5176 256.333 88.8148 253.39 89.9674 251.78C90.1856 251.476 90.2723 251.645 92.7455 250.6C95.1866 249.568 95.7445 249.131 96.2222 249.433C96.9411 249.888 96.118 251.157 96.9095 253.055C97.6109 254.737 99.0017 255.527 99.4239 255.766Z" fill="#2F2E41"/>
<path d="M79.3604 140.793L88.9408 140.107L91.9062 144.911L100.802 147.428L97.4948 170.651L99.9507 195.369C99.9507 195.369 88.2565 203.484 87.3441 207.145C86.4316 210.806 64.0773 203.484 64.0773 203.484L71.7188 179.803L71.0345 161.271L68.9815 150.517L78.3339 146.17L79.3604 140.793Z" fill="#3F3D56"/>
<path d="M75.0263 147.657C75.0263 147.657 67.3919 147.543 66.3619 150.746C65.3318 153.949 61.9102 176.143 61.9102 176.143L59.287 185.867L71.0344 180.032L68.5253 176.149L76.7371 160.355L75.0263 147.657Z" fill="#3F3D56"/>
<path d="M79.6967 183.235C80.959 183.237 82.1325 182.507 82.6233 181.34C82.9945 180.458 82.9595 179.612 82.6818 178.886C82.7711 178.849 82.8597 178.81 82.9512 178.778C82.8168 178.723 82.6862 178.661 82.5556 178.599C82.1009 177.69 81.2291 177.031 80.1908 176.87C78.9046 175.488 78.114 173.637 78.1058 171.599C78.0888 167.399 81.4855 163.89 85.6717 163.79C85.7046 163.789 85.7375 163.788 85.7704 163.788C87.6449 163.766 89.3454 164.818 90.2951 166.439C90.8493 167.385 91.8734 168.02 93.0466 168.02C93.9449 168.02 94.7552 167.648 95.3344 167.049C96.5963 165.743 98.1765 164.772 99.9648 164.474C101.139 164.278 102.355 164.204 103.598 164.266C112.111 164.691 119.435 172.259 119.617 180.806C119.819 190.326 112.186 198.107 102.741 198.107C97.8265 198.107 93.4046 195.999 90.3207 192.637C88.9516 191.144 87.033 190.307 85.0107 190.328C84.9901 190.328 84.9695 190.328 84.9489 190.328C81.6734 190.328 79.0181 187.665 79.0181 184.379C79.0181 184.197 79.0272 184.017 79.0441 183.84C79.0758 183.507 79.364 183.235 79.6967 183.235Z" fill="#B55DBE"/>
<path d="M107.759 178.202L50.9611 167.448L50.733 171.567L107.075 185.066L107.759 178.202Z" fill="#B55DBE"/>
<path d="M51.6455 168.135L50.9612 167.448C50.9612 167.448 47.9958 166.075 47.9958 165.847C47.9958 165.703 43.617 164.216 40.3408 163.123C38.5112 162.512 36.5789 163.72 36.3184 165.637L35.9079 168.656C35.6624 170.462 37.0207 172.087 38.836 172.16L46.8553 172.482L50.7331 171.567L51.6455 168.135Z" fill="#B55DBE"/>
<path d="M107.645 179.46L107.781 178.89L50.9463 167.992L50.8472 168.707L107.645 179.46Z" fill="#3F3D56"/>
<path d="M107.515 180.543L107.645 179.918L50.8845 169.12L50.8472 169.851L107.515 180.543Z" fill="#3F3D56"/>
<path d="M107.385 181.84L107.417 180.833L50.8398 169.941L50.8471 170.537L107.385 181.84Z" fill="#3F3D56"/>
<path d="M107.234 183.346L107.189 182.435L50.7574 170.762L50.7089 170.986L107.234 183.346Z" fill="#3F3D56"/>
<path d="M107.232 184.26L107.189 183.579L50.8422 171.14L50.7916 171.363L107.232 184.26Z" fill="#3F3D56"/>
<path d="M74.5952 146.198L77.4214 144.629L78.6473 169.736L78.2198 172.825C78.2198 172.825 71.0848 153.091 74.5952 146.198Z" fill="#3F3D56"/>
<path d="M85.01 138.391C88.9154 138.391 92.0813 135.215 92.0813 131.298C92.0813 127.381 88.9154 124.205 85.01 124.205C81.1046 124.205 77.9387 127.381 77.9387 131.298C77.9387 135.215 81.1046 138.391 85.01 138.391Z" fill="#FFB6B6"/>
<path d="M78.2198 135.531L79.9103 136.884L77.9917 129.582C77.9917 129.582 83.3522 129.467 83.8084 126.493C83.8084 126.493 88.0283 126.379 89.1688 126.379C90.3094 126.379 90.824 133.948 90.824 133.948C90.824 133.948 93.0466 127.751 90.7656 124.548C88.4845 121.345 89.2829 123.29 88.8267 122.146C88.3705 121.002 83.6943 119.95 80.7289 121.116C77.7636 122.283 77.6495 123.946 76.7371 123.961C75.8247 123.976 72.6312 128.552 75.5966 132.213C78.5619 135.874 78.2198 135.531 78.2198 135.531Z" fill="#2F2E41"/>
<path d="M100.568 182.075C101.407 181.404 102.024 180.599 102.372 179.804L110.759 173.919L107.851 169.998L99.6563 176.389C98.8055 176.553 97.8858 176.978 97.0477 177.649C95.1329 179.182 94.3689 181.415 95.3411 182.637C96.3133 183.859 98.6536 183.608 100.568 182.075Z" fill="#FFB6B6"/>
<path d="M68.437 173.124C67.8151 174.001 67.4421 174.945 67.3256 175.806L60.8755 183.777L64.7467 186.745L70.8729 178.339C71.646 177.947 72.4136 177.285 73.0355 176.408C74.4562 174.407 74.5786 172.049 73.3087 171.142C72.0389 170.235 69.8578 171.123 68.437 173.124Z" fill="#FFB6B6"/>
<path d="M97.1526 148.915C97.1526 148.915 99.2055 145.483 101.258 147.543C102.883 149.172 111.792 159.541 115.44 163.798C116.445 164.971 116.998 166.467 116.998 168.015C116.998 170.409 115.68 172.608 113.572 173.731L102.171 179.803L98.9774 174.999L108.786 167.906L93.731 159.669L97.1526 148.915Z" fill="#3F3D56"/>
<path d="M61.1029 180.543L59.287 185.867L64.5334 188.612L68.5253 185.867L71.0344 180.032L63.621 177.859" fill="#3F3D56"/>
<path d="M263.134 96.677C262.922 94.4419 263.899 92.5202 265.318 92.3849C266.736 92.2495 268.057 93.9516 268.269 96.1875C268.366 97.0795 268.249 97.9818 267.927 98.819L268.708 108.301L264.264 108.573L263.966 99.1971C263.492 98.4357 263.207 97.5716 263.134 96.677Z" fill="#FFB6B6"/>
<path d="M287.345 101.175C287.345 101.175 280.085 96.8914 278.59 97.5339C277.095 98.1765 269.835 109.1 269.835 109.1L269.168 107.106L264.07 107.6C264.07 107.6 261.081 121.522 267.7 120.237C274.319 118.952 285.209 106.958 285.209 106.958L287.345 101.175Z" fill="#B55DBE"/>
<path d="M252.662 102.738L262.699 100.398L263.418 102.489L268.274 101.174L271.477 100.306L274.587 94.2449L272.38 87.8287L265.809 87.767L263.799 88.1633L258.194 89.2693C257.719 90.0566 257.978 91.0812 258.77 91.5463L259.029 91.6989L251.143 93.0686C251.143 93.0686 248.624 97.5654 252.662 102.738Z" fill="#3F3D56"/>
<path d="M263.799 88.1633L268.274 101.174L271.477 100.306L274.587 94.2449L272.38 87.8287L265.809 87.767L263.799 88.1633Z" fill="#2F2E41"/>
<path d="M262.101 88.7056C262.792 88.5522 263.29 88.147 263.214 87.8005C263.137 87.454 262.515 87.2975 261.824 87.4509C261.134 87.6043 260.635 88.0095 260.712 88.356C260.788 88.7025 261.41 88.859 262.101 88.7056Z" fill="#3F3D56"/>
</g>
<defs>
<clipPath id="clip0_636_866">
<rect width="309" height="272" fill="white"/>
</clipPath>
</defs>
</svg>
