<svg width="90" height="88" viewBox="0 0 90 88" fill="none" xmlns="http://www.w3.org/2000/svg">
<path d="M59.6667 34.4444C59.6667 42.3605 53.1002 48.7778 45 48.7778C36.8998 48.7778 30.3333 42.3605 30.3333 34.4444C30.3333 26.5284 36.8998 20.1111 45 20.1111C53.1002 20.1111 59.6667 26.5284 59.6667 34.4444Z" fill="#B55DBE"/>
<path d="M73.7367 76.5052C74.0966 76.2242 74.2416 75.7613 74.0825 75.345C72.2507 70.5512 68.5476 66.3246 63.4869 63.2699C58.1833 60.0686 51.6851 58.3333 45 58.3333C38.315 58.3333 31.8167 60.0686 26.5131 63.2699C21.4524 66.3246 17.7493 70.5512 15.9175 75.345C15.7584 75.7613 15.9034 76.2242 16.2633 76.5052C32.9674 89.5487 57.0326 89.5487 73.7367 76.5052Z" fill="#7E869E" fill-opacity="0.25"/>
<path d="M59.6667 34.4444C59.6667 42.3605 53.1002 48.7778 45 48.7778C36.8998 48.7778 30.3333 42.3605 30.3333 34.4444C30.3333 26.5284 36.8998 20.1111 45 20.1111C53.1002 20.1111 59.6667 26.5284 59.6667 34.4444Z" stroke="#B55DBE" stroke-width="1.2" stroke-linecap="round"/>
<path d="M89 44C89 67.7482 69.3005 87 45 87C20.6995 87 1 67.7482 1 44C1 20.2518 20.6995 1 45 1C69.3005 1 89 20.2518 89 44Z" stroke="#B55DBE" stroke-width="1.2" stroke-linecap="round"/>
<path d="M73.7367 76.5052C74.0966 76.2242 74.2416 75.7613 74.0825 75.345C72.2507 70.5512 68.5476 66.3246 63.4869 63.2699C58.1833 60.0686 51.6851 58.3333 45 58.3333C38.315 58.3333 31.8167 60.0686 26.5131 63.2699C21.4524 66.3246 17.7493 70.5512 15.9175 75.345C15.7584 75.7613 15.9034 76.2242 16.2633 76.5052C32.9674 89.5487 57.0326 89.5487 73.7367 76.5052Z" stroke="#B55DBE" stroke-width="1.2" stroke-linecap="round"/>
</svg>
